<?xml version="1.0" encoding="UTF-8"?>
<svg version="1.1" xmlns="http://www.w3.org/2000/svg" width="512" height="512">
<path d="M0 0 C1.01474593 -0.00679667 1.01474593 -0.00679667 2.04999179 -0.01373065 C4.30990242 -0.02635992 6.5695716 -0.02475526 8.82951355 -0.02310181 C10.45272124 -0.02908802 12.07592609 -0.03589378 13.6991272 -0.04345703 C18.1042017 -0.06111562 22.50919849 -0.06581237 26.91430497 -0.0670886 C29.66809473 -0.06851093 32.42186478 -0.0727821 35.17564964 -0.07808304 C44.78749723 -0.09658341 54.39928937 -0.10475371 64.01115417 -0.10317993 C72.96289881 -0.10197879 81.91440223 -0.12307579 90.86608583 -0.15466726 C98.55797927 -0.18084291 106.249794 -0.19154667 113.94173163 -0.19026911 C118.5329144 -0.18975982 123.12388282 -0.1954246 127.71502113 -0.21662521 C132.03498997 -0.23602915 136.35454047 -0.23611747 140.67452431 -0.22159195 C142.25631829 -0.21950536 143.8381386 -0.22419585 145.41988754 -0.23631287 C154.78468357 -0.30338194 162.02988652 -0.21985319 169.39274597 6.23226929 C169.9315741 6.88324585 170.47040222 7.53422241 171.02555847 8.20492554 C171.57985535 8.85332397 172.13415222 9.50172241 172.70524597 10.16976929 C175.62700028 14.41026134 176.4014027 18.09949541 176.41798401 23.20573425 C176.43077896 24.99091713 176.43077896 24.99091713 176.4438324 26.81216431 C176.44292603 28.10942444 176.44201965 29.40668457 176.44108582 30.74325562 C176.44707345 32.13001364 176.45387954 33.51676834 176.46144104 34.90351868 C176.47908559 38.66398828 176.48379579 42.42436682 176.48507261 46.18487382 C176.48649578 48.53664165 176.49076854 50.88838644 176.49606705 53.24014854 C176.51456303 61.4514856 176.5227383 69.66275779 176.52116394 77.87411499 C176.51996303 85.51711913 176.54105642 93.15984065 176.57265127 100.8027733 C176.59884224 107.37365886 176.60953004 113.94445229 176.60825312 120.51538962 C176.60774426 124.43589099 176.61338481 128.35614117 176.63460922 132.27659035 C176.65403914 135.96622617 176.65408414 139.65537246 176.63957596 143.34502602 C176.6365033 145.33540861 176.65313148 147.3257915 176.67045593 149.31610107 C176.61289064 157.54078527 175.75938382 163.14920338 170.18571472 169.50961304 C169.53473816 170.04844116 168.8837616 170.58726929 168.21305847 171.14242554 C167.56466003 171.69672241 166.9162616 172.25101929 166.24821472 172.82211304 C161.42313559 176.14665546 157.07928336 176.53526941 151.33805847 176.39242554 C150.64518738 176.3834021 149.95231628 176.37437866 149.2384491 176.36508179 C147.54233452 176.3416871 145.84639976 176.30582194 144.15055847 176.26742554 C144.15207735 176.82088779 144.15359623 177.37435005 144.15516114 177.94458389 C144.24469142 210.75398121 144.31331376 243.56334788 144.35481979 276.37283999 C144.35982256 280.31312522 144.36499986 284.2534102 144.37028503 288.19369507 C144.37133428 288.97812827 144.37238352 289.76256147 144.37346455 290.57076538 C144.39086541 303.26889058 144.42240133 315.96694327 144.45916966 328.66502547 C144.49658799 341.69636258 144.51879621 354.72766174 144.52691245 367.75905037 C144.53239839 375.79885451 144.54971938 383.8384537 144.58222434 391.87819475 C144.60588613 398.04516357 144.60837605 404.21197644 144.6029892 410.37898445 C144.60409 412.90735193 144.61205128 415.43572714 144.62738037 417.96404839 C144.64728706 421.41661499 144.64249419 424.86830537 144.63157654 428.32089233 C144.6432279 429.320909 144.65487927 430.32092567 144.66688371 431.35124588 C144.6046365 438.6361291 143.03157153 443.97974861 138.18571472 449.50961304 C137.53473816 450.04844116 136.8837616 450.58726929 136.21305847 451.14242554 C135.56466003 451.69672241 134.9162616 452.25101929 134.24821472 452.82211304 C129.87292343 455.83674577 126.10758571 456.51798413 120.84170818 456.52469444 C118.92179153 456.53436778 118.92179153 456.53436778 116.96308869 456.54423654 C115.5448399 456.54129433 114.12659149 456.5381589 112.70834351 456.53485107 C111.20005052 456.53858755 109.69175947 456.54318906 108.1834715 456.54858172 C104.03721496 456.56082748 99.89103901 456.5605494 95.7447685 456.55819297 C91.27361961 456.5577852 86.80249669 456.56882013 82.33135986 456.57830811 C73.57092258 456.59492772 64.8105122 456.60041809 56.05006047 456.60153286 C48.92972506 456.60248288 41.80939854 456.60659086 34.68906593 456.61293411 C14.50559207 456.63054914 -5.67786051 456.63977257 -25.86134211 456.63827316 C-26.94965369 456.63819325 -28.03796527 456.63811334 -29.15925598 456.63803101 C-30.7937145 456.63790836 -30.7937145 456.63790836 -32.46119239 456.63778324 C-50.12205692 456.63697027 -67.78283617 456.65611016 -85.44367603 456.68430774 C-103.573798 456.71302637 -121.70387836 456.7268486 -139.83402365 456.72512019 C-150.01429226 456.72445593 -160.19447148 456.72996374 -170.37471962 456.75147629 C-179.0422328 456.76967465 -187.70961608 456.77404649 -196.37714008 456.76045744 C-200.79941377 456.75392099 -205.22143813 456.75383493 -209.6436882 456.77116394 C-213.69340232 456.78686991 -217.74266891 456.78405658 -221.79237195 456.76659568 C-223.25601797 456.7635203 -224.71969718 456.76717847 -226.18330405 456.77831583 C-235.34555395 456.84340896 -241.96778077 456.54525718 -249.09162903 450.30258179 C-249.63045715 449.65160522 -250.16928528 449.00062866 -250.72444153 448.32992554 C-251.2787384 447.6815271 -251.83303528 447.03312866 -252.40412903 446.36508179 C-255.47866123 441.90285532 -256.10015644 438.07801241 -256.10671043 432.70869732 C-256.11021651 432.06036612 -256.11372258 431.41203492 -256.1173349 430.74405733 C-256.12664915 428.56854894 -256.12172562 426.39330822 -256.11686707 424.2177887 C-256.12060332 422.643499 -256.12520474 421.06921116 -256.13059771 419.49492627 C-256.14284623 415.16624549 -256.14256507 410.83764189 -256.14020896 406.50894773 C-256.13980126 401.84147851 -256.15083545 397.17403419 -256.1603241 392.50657654 C-256.17694521 383.36112394 -256.18243414 374.21569712 -256.18354885 365.07023069 C-256.1844988 357.63715702 -256.18860641 350.20409186 -256.1949501 342.77102089 C-256.21256552 321.70214676 -256.2217885 300.63329303 -256.22028916 279.56441148 C-256.22020924 278.42830798 -256.22012933 277.29220447 -256.220047 276.12167358 C-256.21996524 274.98418473 -256.21988347 273.84669588 -256.21979924 272.67473767 C-256.21898624 254.23789151 -256.23812649 235.80112703 -256.26632373 217.36430451 C-256.29504045 198.43865407 -256.30886469 179.51304348 -256.30713618 160.58737069 C-256.30647186 149.95997279 -256.3119825 139.33266051 -256.33349228 128.70528221 C-256.35168812 119.65715356 -256.35606455 110.60914934 -256.34247343 101.56101032 C-256.33593573 96.94431488 -256.33585551 92.32785829 -256.35317993 87.71118546 C-256.36888027 83.48383711 -256.36607827 79.2569176 -256.34861167 75.02957992 C-256.34553506 73.50133145 -256.34919907 71.97305123 -256.36033182 70.44484022 C-256.42275389 61.26730844 -256.20521781 54.23803306 -249.88459778 47.02523804 C-249.23362122 46.48640991 -248.58264465 45.94758179 -247.91194153 45.39242554 C-246.93934387 44.56098022 -246.93934387 44.56098022 -245.94709778 43.71273804 C-240.85441502 40.20381323 -236.12701148 39.98410163 -230.0859375 40.0269165 C-228.76258368 40.02435323 -228.76258368 40.02435323 -227.41249543 40.02173817 C-224.45674311 40.01844433 -221.50121786 40.02944531 -218.54548645 40.04037476 C-216.42654933 40.04093889 -214.30761182 40.04062226 -212.18867493 40.03948975 C-206.43498809 40.03891533 -200.68138445 40.05068412 -194.92771697 40.06463766 C-188.91524536 40.07713013 -182.90277189 40.07831435 -176.89028931 40.08068848 C-165.50420392 40.0869076 -154.11815688 40.1033243 -142.73208839 40.12338746 C-129.76970929 40.14573297 -116.80732838 40.1567365 -103.84493482 40.16677833 C-77.17974912 40.18769013 -50.51459747 40.22287454 -23.84944153 40.26742554 C-23.87038879 39.61258179 -23.89133606 38.95773804 -23.91291809 38.28305054 C-23.99674536 35.27800225 -24.04831048 32.2732009 -24.09944153 29.26742554 C-24.13295715 28.2374646 -24.16647278 27.20750366 -24.20100403 26.14633179 C-24.30047139 18.33814408 -23.17147636 13.05837582 -17.88459778 7.02523804 C-16.90813293 6.21699585 -16.90813293 6.21699585 -15.91194153 5.39242554 C-15.26354309 4.83812866 -14.61514465 4.28383179 -13.94709778 3.71273804 C-9.38867564 0.57192576 -5.48411793 0.01520174 0 0 Z " fill="#44ADD7" transform="translate(311.8494415283203,23.732574462890625)"/>
<path d="M0 0 C0.67649729 -0.00453111 1.35299458 -0.00906223 2.04999179 -0.01373065 C4.30990242 -0.02635992 6.5695716 -0.02475526 8.82951355 -0.02310181 C10.45272124 -0.02908802 12.07592609 -0.03589378 13.6991272 -0.04345703 C18.1042017 -0.06111562 22.50919849 -0.06581237 26.91430497 -0.0670886 C29.66809473 -0.06851093 32.42186478 -0.0727821 35.17564964 -0.07808304 C44.78749723 -0.09658341 54.39928937 -0.10475371 64.01115417 -0.10317993 C72.96289881 -0.10197879 81.91440223 -0.12307579 90.86608583 -0.15466726 C98.55797927 -0.18084291 106.249794 -0.19154667 113.94173163 -0.19026911 C118.5329144 -0.18975982 123.12388282 -0.1954246 127.71502113 -0.21662521 C132.03498997 -0.23602915 136.35454047 -0.23611747 140.67452431 -0.22159195 C142.25631829 -0.21950536 143.8381386 -0.22419585 145.41988754 -0.23631287 C154.78468357 -0.30338194 162.02988652 -0.21985319 169.39274597 6.23226929 C169.9315741 6.88324585 170.47040222 7.53422241 171.02555847 8.20492554 C171.57985535 8.85332397 172.13415222 9.50172241 172.70524597 10.16976929 C175.62700028 14.41026134 176.4014027 18.09949541 176.41798401 23.20573425 C176.43077896 24.99091713 176.43077896 24.99091713 176.4438324 26.81216431 C176.44247284 28.7580545 176.44247284 28.7580545 176.44108582 30.74325562 C176.44707345 32.13001364 176.45387954 33.51676834 176.46144104 34.90351868 C176.47908559 38.66398828 176.48379579 42.42436682 176.48507261 46.18487382 C176.48649578 48.53664165 176.49076854 50.88838644 176.49606705 53.24014854 C176.51456303 61.4514856 176.5227383 69.66275779 176.52116394 77.87411499 C176.51996303 85.51711913 176.54105642 93.15984065 176.57265127 100.8027733 C176.59884224 107.37365886 176.60953004 113.94445229 176.60825312 120.51538962 C176.60774426 124.43589099 176.61338481 128.35614117 176.63460922 132.27659035 C176.65403914 135.96622617 176.65408414 139.65537246 176.63957596 143.34502602 C176.6365033 145.33540861 176.65313148 147.3257915 176.67045593 149.31610107 C176.61289064 157.54078527 175.75938382 163.14920338 170.18571472 169.50961304 C169.53473816 170.04844116 168.8837616 170.58726929 168.21305847 171.14242554 C167.56466003 171.69672241 166.9162616 172.25101929 166.24821472 172.82211304 C161.08398864 176.38033212 156.56218444 176.45196524 150.45280457 176.12606812 C148.65073703 176.05164493 146.84862017 175.97840941 145.04646301 175.90618896 C143.61423841 175.84456133 143.61423841 175.84456133 142.15307999 175.78168869 C81.21739357 171.63349271 81.21739357 171.63349271 28.65730286 197.82611084 C26.20709569 200.10301705 23.8780667 202.4673976 21.61802673 204.93269348 C20.15055847 206.26742554 20.15055847 206.26742554 16.15055847 208.26742554 C16.15055847 197.70742554 16.15055847 187.14742554 16.15055847 176.26742554 C9.27001225 176.42459066 9.27001225 176.42459066 2.39079285 176.6277771 C-5.3482951 176.71630541 -10.45953594 175.22686692 -16.31037903 170.11898804 C-16.94201965 169.38422241 -17.57366028 168.64945679 -18.22444153 167.89242554 C-18.8715509 167.16281616 -19.51866028 166.43320679 -20.18537903 165.68148804 C-23.30401565 161.15726872 -24.09899989 156.70347643 -24.11686707 151.28479004 C-24.12539703 150.11012177 -24.133927 148.93545349 -24.14271545 147.72518921 C-24.14180908 146.45022583 -24.14090271 145.17526245 -24.13996887 143.86166382 C-24.14595853 142.49446243 -24.15276508 141.12726441 -24.1603241 139.7600708 C-24.17794594 136.05750949 -24.18267783 132.3550407 -24.18395567 128.6524415 C-24.18537988 126.33634772 -24.18965457 124.02027727 -24.1949501 121.7041893 C-24.21343708 113.61604068 -24.2216223 105.52795787 -24.220047 97.43978882 C-24.21884565 89.9132097 -24.23995 82.38691737 -24.27153432 74.86041081 C-24.29772591 68.38716862 -24.3084131 61.91401995 -24.30713618 55.44072521 C-24.30662743 51.57948198 -24.31226213 47.71849382 -24.33349228 43.85730362 C-24.35292382 40.22428564 -24.35296615 36.59176479 -24.33845901 32.95872879 C-24.33538703 30.99936756 -24.35201253 29.04000602 -24.36933899 27.08071899 C-24.31130203 18.91506566 -23.41825862 13.33999216 -17.88459778 7.02523804 C-17.23362122 6.48640991 -16.58264465 5.94758179 -15.91194153 5.39242554 C-15.26354309 4.83812866 -14.61514465 4.28383179 -13.94709778 3.71273804 C-9.38867564 0.57192576 -5.48411793 0.01520174 0 0 Z " fill="#87BE40" transform="translate(311.8494415283203,23.732574462890625)"/>
<path d="M0 0 C52.8 0 105.6 0 160 0 C160 42.24 160 84.48 160 128 C107.2 128 54.4 128 0 128 C0 85.76 0 43.52 0 0 Z " fill="#EE5249" transform="translate(96,168)"/>
<path d="M0 0 C1.32335382 -0.00256327 1.32335382 -0.00256327 2.67344207 -0.00517833 C5.62919439 -0.00847218 8.58471964 0.0025288 11.54045105 0.01345825 C13.65938817 0.01402239 15.77832568 0.01370576 17.89726257 0.01257324 C23.65094941 0.01199882 29.40455305 0.02376762 35.15822053 0.03772116 C41.17069214 0.05021363 47.18316561 0.05139785 53.19564819 0.05377197 C64.58173358 0.0599911 75.96778062 0.0764078 87.35384911 0.09647095 C100.31622821 0.11881647 113.27860912 0.12982 126.24100268 0.13986182 C152.90619328 0.16077363 179.5713313 0.1974553 206.23649597 0.24050903 C206.23649597 21.36050903 206.23649597 42.48050903 206.23649597 64.24050903 C129.67649597 64.24050903 53.11649597 64.24050903 -25.76350403 64.24050903 C-25.76350403 13.80512136 -25.76350403 13.80512136 -19.79866028 6.99832153 C-19.14768372 6.45949341 -18.49670715 5.92066528 -17.82600403 5.36550903 C-17.17760559 4.81121216 -16.52920715 4.25691528 -15.86116028 3.68582153 C-10.76847752 0.17689673 -6.04107398 -0.04281487 0 0 Z " fill="#3890CE" transform="translate(81.76350402832031,63.759490966796875)"/>
<path d="M0 0 C52.8 0 105.6 0 160 0 C160 18.48 160 36.96 160 56 C107.2 56 54.4 56 0 56 C0 37.52 0 19.04 0 0 Z " fill="#FFC119" transform="translate(96,384)"/>
<path d="M0 0 C5.28 0 10.56 0 16 0 C16 73.92 16 147.84 16 224 C10.72 224 5.44 224 0 224 C0 150.08 0 76.16 0 0 Z " fill="#CCDCE5" transform="translate(16,104)"/>
<path d="M0 0 C5.28 0 10.56 0 16 0 C16 52.8 16 105.6 16 160 C10.72 160 5.44 160 0 160 C0 107.2 0 54.4 0 0 Z " fill="#CCDCE5" transform="translate(480,272)"/>
<path d="M0 0 C44.88 0 89.76 0 136 0 C136 5.28 136 10.56 136 16 C91.12 16 46.24 16 0 16 C0 10.72 0 5.44 0 0 Z " fill="#D2E288" transform="translate(320,152)"/>
<path d="M0 0 C44.88 0 89.76 0 136 0 C136 5.28 136 10.56 136 16 C91.12 16 46.24 16 0 16 C0 10.72 0 5.44 0 0 Z " fill="#D2E288" transform="translate(320,120)"/>
<path d="M0 0 C44.88 0 89.76 0 136 0 C136 5.28 136 10.56 136 16 C91.12 16 46.24 16 0 16 C0 10.72 0 5.44 0 0 Z " fill="#D2E288" transform="translate(320,88)"/>
<path d="M0 0 C36.96 0 73.92 0 112 0 C112 5.28 112 10.56 112 16 C75.04 16 38.08 16 0 16 C0 10.72 0 5.44 0 0 Z " fill="#A1DBE8" transform="translate(152,328)"/>
<path d="M0 0 C34.32 0 68.64 0 104 0 C104 5.28 104 10.56 104 16 C69.68 16 35.36 16 0 16 C0 10.72 0 5.44 0 0 Z " fill="#D2E288" transform="translate(352,56)"/>
<path d="M0 0 C23.76 0 47.52 0 72 0 C72 5.28 72 10.56 72 16 C48.24 16 24.48 16 0 16 C0 10.72 0 5.44 0 0 Z " fill="#A1DBE8" transform="translate(352,432)"/>
<path d="M0 0 C23.76 0 47.52 0 72 0 C72 5.28 72 10.56 72 16 C48.24 16 24.48 16 0 16 C0 10.72 0 5.44 0 0 Z " fill="#A1DBE8" transform="translate(352,400)"/>
<path d="M0 0 C23.76 0 47.52 0 72 0 C72 5.28 72 10.56 72 16 C48.24 16 24.48 16 0 16 C0 10.72 0 5.44 0 0 Z " fill="#A1DBE8" transform="translate(352,360)"/>
<path d="M0 0 C23.76 0 47.52 0 72 0 C72 5.28 72 10.56 72 16 C48.24 16 24.48 16 0 16 C0 10.72 0 5.44 0 0 Z " fill="#A1DBE8" transform="translate(352,328)"/>
<path d="M0 0 C23.76 0 47.52 0 72 0 C72 5.28 72 10.56 72 16 C48.24 16 24.48 16 0 16 C0 10.72 0 5.44 0 0 Z " fill="#A1DBE8" transform="translate(352,288)"/>
<path d="M0 0 C23.76 0 47.52 0 72 0 C72 5.28 72 10.56 72 16 C48.24 16 24.48 16 0 16 C0 10.72 0 5.44 0 0 Z " fill="#A1DBE8" transform="translate(352,256)"/>
<path d="M0 0 C11.45775438 5.42735734 22.86939568 10.86313678 34.1875 16.5625 C35.44977179 17.19615881 36.71214162 17.82962235 37.97460938 18.46289062 C40.98403104 19.97336663 43.99248814 21.48572603 47 23 C47 23.66 47 24.32 47 25 C40.46859594 28.27833437 33.93565414 31.55358826 27.40161133 34.82666016 C25.17696799 35.94150299 22.95268344 37.05706208 20.72875977 38.17333984 C17.5401568 39.77367631 14.35029077 41.3714692 11.16015625 42.96875 C10.15912369 43.47184692 9.15809113 43.97494385 8.12672424 44.49328613 C7.20584518 44.95376343 6.28496613 45.41424072 5.33618164 45.88867188 C4.52121719 46.2972644 3.70625275 46.70585693 2.86659241 47.12683105 C1 48 1 48 0 48 C0 32.16 0 16.32 0 0 Z " fill="#E9EEEF" transform="translate(152,208)"/>
<path d="M0 0 C10.56 0 21.12 0 32 0 C32 10.56 32 21.12 32 32 C21.44 32 10.88 32 0 32 C0 21.44 0 10.88 0 0 Z " fill="#EF5249" transform="translate(296,408)"/>
<path d="M0 0 C10.56 0 21.12 0 32 0 C32 10.56 32 21.12 32 32 C21.44 32 10.88 32 0 32 C0 21.44 0 10.88 0 0 Z " fill="#EF5249" transform="translate(296,336)"/>
<path d="M0 0 C5.28 0 10.56 0 16 0 C16 10.56 16 21.12 16 32 C10.72 32 5.44 32 0 32 C0 29.36 0 26.72 0 24 C-10.56 24 -21.12 24 -32 24 C-32 18.72 -32 13.44 -32 8 C-21.44 8 -10.88 8 0 8 C0 5.36 0 2.72 0 0 Z " fill="#A1DBE8" transform="translate(120,320)"/>
<path d="M0 0 C10.56 0 21.12 0 32 0 C32 10.56 32 21.12 32 32 C21.44 32 10.88 32 0 32 C0 21.44 0 10.88 0 0 Z " fill="#EF5249" transform="translate(296,264)"/>
<path d="M0 0 C5.28 0 10.56 0 16 0 C16 5.28 16 10.56 16 16 C10.72 16 5.44 16 0 16 C0 10.72 0 5.44 0 0 Z " fill="#CCDCE5" transform="translate(16,344)"/>
<path d="M0 0 C5.28 0 10.56 0 16 0 C16 5.28 16 10.56 16 16 C10.72 16 5.44 16 0 16 C0 10.72 0 5.44 0 0 Z " fill="#88BF40" transform="translate(144,88)"/>
<path d="M0 0 C5.28 0 10.56 0 16 0 C16 5.28 16 10.56 16 16 C10.72 16 5.44 16 0 16 C0 10.72 0 5.44 0 0 Z " fill="#FDE700" transform="translate(112,88)"/>
<path d="M0 0 C5.28 0 10.56 0 16 0 C16 5.28 16 10.56 16 16 C10.72 16 5.44 16 0 16 C0 10.72 0 5.44 0 0 Z " fill="#EB4042" transform="translate(80,88)"/>
<path d="M0 0 C5.28 0 10.56 0 16 0 C16 5.28 16 10.56 16 16 C10.72 16 5.44 16 0 16 C0 10.72 0 5.44 0 0 Z " fill="#D2E288" transform="translate(320,56)"/>
</svg>
