<?xml version="1.0" encoding="UTF-8"?>
<svg version="1.1" xmlns="http://www.w3.org/2000/svg" width="512" height="533">
<path d="M0 0 C2.11604204 1.8406423 4.19001868 3.72196964 6.25 5.625 C6.76014648 6.09131836 7.27029297 6.55763672 7.79589844 7.03808594 C33.19392591 30.50347974 49.80691621 64.67059761 51.37451172 99.38208008 C52.2351036 132.70195255 45.68409376 162.98302369 26.3515625 190.55078125 C24.74299484 192.90383469 23.47423443 195.0770922 22.25 197.625 C22.91985428 198.28597183 23.58970856 198.94694366 24.27986145 199.62794495 C30.60268263 205.86954922 36.91481612 212.12178765 43.21674061 218.38449192 C46.45668303 221.60359273 49.70022617 224.81888025 52.95239258 228.02563477 C56.09294993 231.12261306 59.22352876 234.22936589 62.3475399 237.34303093 C63.53890254 238.52702391 64.73377057 239.70750081 65.93223 240.88430977 C67.61513844 242.53802476 69.28495074 244.20400151 70.95239258 245.87329102 C71.44654663 246.35306396 71.94070068 246.83283691 72.4498291 247.32714844 C76.75289573 251.68182181 78.91135994 255.96425667 79.6875 262.0625 C79.03218001 267.39867704 77.5078186 271.51498442 73.51953125 275.2421875 C69.27852821 278.23882438 65.680169 279.17043002 60.5234375 279.09375 C54.68395632 277.88973326 50.67045279 274.47659295 46.61181641 270.32739258 C46.08424744 269.80026169 45.55667847 269.2731308 45.01312256 268.73002625 C43.28538798 267.0002154 41.56850133 265.26005229 39.8515625 263.51953125 C38.65010211 262.31247078 37.44797403 261.10607455 36.24520874 259.90031433 C33.09200142 256.73569074 29.94791037 253.56216006 26.80566406 250.38665771 C23.59337193 247.14359533 20.37249665 243.90908205 17.15234375 240.67382812 C10.84315634 234.33253336 4.54357137 227.98179092 -1.75 221.625 C-2.49711243 222.10198837 -3.24422485 222.57897675 -4.01397705 223.07041931 C-5.49060822 224.01190575 -5.49060822 224.01190575 -6.99707031 224.97241211 C-7.97105774 225.59377548 -8.94504517 226.21513885 -9.94854736 226.85533142 C-20.74704841 233.67670964 -31.71572829 239.33268865 -43.75 243.625 C-44.80445313 244.00398438 -45.85890625 244.38296875 -46.9453125 244.7734375 C-70.83561003 252.73687001 -98.3083687 253.56425635 -122.75 247.625 C-123.74918457 247.39949463 -123.74918457 247.39949463 -124.76855469 247.16943359 C-143.6231361 242.81524609 -161.74069311 233.78361168 -176.75 221.625 C-177.57201904 220.9757959 -177.57201904 220.9757959 -178.41064453 220.31347656 C-203.14921275 200.70878777 -219.78529746 174.10326171 -227.75 143.625 C-228.05035156 142.50480469 -228.35070312 141.38460937 -228.66015625 140.23046875 C-233.37710076 118.92743099 -232.85376044 93.52828916 -226.75 72.625 C-226.53569336 71.86380859 -226.32138672 71.10261719 -226.10058594 70.31835938 C-220.27473595 50.0508463 -210.29902863 31.13111565 -195.7578125 15.75390625 C-194.02390349 13.91542296 -192.44863926 12.03629324 -190.875 10.0625 C-171.89182791 -12.14521091 -140.09691521 -26.09000119 -111.75 -30.375 C-110.55503906 -30.55804688 -109.36007812 -30.74109375 -108.12890625 -30.9296875 C-69.75927965 -35.53183807 -29.72091758 -24.99309758 0 0 Z M-160.75 27.625 C-161.81203276 28.45892872 -162.87447167 29.29234073 -163.9375 30.125 C-183.03834659 47.1035303 -196.20570086 73.3492452 -197.97314453 98.84375 C-198.46721307 113.50753306 -198.22666452 127.57334966 -193.75 141.625 C-193.20666016 143.33429688 -193.20666016 143.33429688 -192.65234375 145.078125 C-187.89063532 158.44319137 -181.14222728 170.01143914 -171.75 180.625 C-171.21117187 181.30691406 -170.67234375 181.98882812 -170.1171875 182.69140625 C-154.3478804 202.30398669 -127.34380092 214.83525542 -102.75 217.625 C-87.67280855 218.41875137 -73.22115551 218.14615344 -58.75 213.625 C-58.0679248 213.41601074 -57.38584961 213.20702148 -56.68310547 212.99169922 C-29.49963012 204.39829652 -6.93578442 184.80209587 6.5378418 159.80444336 C11.01782235 151.09532701 13.94622613 142.12344735 16.25 132.625 C16.49621094 131.64660156 16.74242187 130.66820312 16.99609375 129.66015625 C22.66300608 102.41989491 15.65835156 73.95280729 1.25 50.625 C-16.20745264 24.68470066 -41.43722369 8.67288973 -71.92578125 2.546875 C-77.7848069 1.5086863 -83.49642174 1.27865872 -89.4375 1.3125 C-91.01059937 1.32095947 -91.01059937 1.32095947 -92.61547852 1.32958984 C-118.00482002 1.72316263 -141.60397715 11.01463085 -160.75 27.625 Z " fill="#48CBEC" transform="translate(406.75,88.375)"/>
<path d="M0 0 C0.70456194 -0.00235223 1.40912387 -0.00470446 2.13503617 -0.00712797 C4.51980182 -0.01383841 6.90451324 -0.01335914 9.28928757 -0.01294994 C11.00678012 -0.0162473 12.7242719 -0.01997259 14.44176269 -0.02409142 C19.18011775 -0.03413415 23.91846015 -0.03783186 28.65682435 -0.04048073 C33.75988828 -0.04437705 38.8629421 -0.05395583 43.9659996 -0.0626936 C56.299004 -0.08247683 68.63200924 -0.09252647 80.96502554 -0.10142139 C86.76809787 -0.10580115 92.57116928 -0.11116876 98.37424088 -0.11641026 C117.65674398 -0.13342422 136.93924652 -0.14791946 156.22175598 -0.155159 C161.22821427 -0.157069 166.23467256 -0.15898931 171.24113083 -0.16094494 C172.48551232 -0.16142868 173.72989382 -0.16191242 175.01198384 -0.16241082 C195.18016095 -0.17071505 215.34827882 -0.19605785 235.51643005 -0.22852562 C256.20705059 -0.26156383 276.897641 -0.27960482 297.58828807 -0.28280324 C309.21165307 -0.28497132 320.83493168 -0.29376344 332.45827103 -0.31926441 C342.35522338 -0.34092719 352.25206837 -0.34904366 362.14904174 -0.33929763 C367.20089762 -0.33474011 372.25253178 -0.33672325 377.30435753 -0.35605907 C381.92707522 -0.3736001 386.54940797 -0.37276714 391.17212924 -0.35716178 C392.84646318 -0.35477187 394.52082315 -0.35918041 396.19511715 -0.37099043 C398.46824103 -0.38603412 400.73998762 -0.37649068 403.01307678 -0.36076355 C404.27646134 -0.36174036 405.53984589 -0.36271717 406.84151483 -0.36372358 C412.03609799 0.39332577 415.08341279 2.8975812 418.63322067 6.63422108 C421.03125643 11.79922116 421.01203603 16.53444988 420.25822067 22.13422108 C417.96715026 27.06883427 414.96431902 29.48704075 410.25822067 32.13422108 C406.66127449 33.35559422 403.17653412 33.26184293 399.40087128 33.26564884 C398.70810783 33.26770148 398.01534439 33.26975411 397.30158812 33.27186894 C394.96897898 33.27754518 392.63642877 33.27608093 390.30381393 33.27466297 C388.61901921 33.27724625 386.93422511 33.2802593 385.24943185 33.28366637 C380.6106674 33.291744 375.97191841 33.29352637 371.33314776 33.29426384 C366.33369579 33.29611306 361.33425186 33.30365972 356.33480453 33.31039906 C345.3989037 33.32398816 334.46300653 33.33000795 323.52709866 33.33440971 C316.70065801 33.33717107 309.87421877 33.34140822 303.04777908 33.34591389 C284.15293975 33.35810713 265.25810155 33.36840645 246.36325836 33.37178898 C245.15365834 33.37200854 243.94405832 33.37222811 242.69780375 33.37245433 C241.4852861 33.37267261 240.27276845 33.37289089 239.02350783 33.37311578 C236.56642644 33.37355925 234.10934504 33.37400581 231.65226364 33.37445545 C230.43346269 33.37467688 229.21466174 33.37489831 227.95892742 33.37512645 C208.20609762 33.3790752 188.45330469 33.39653135 168.70048913 33.41981497 C148.42789993 33.44351871 128.15532924 33.45599038 107.88272595 33.4571569 C96.49744106 33.45807419 85.1122042 33.46384017 73.72693253 33.48197651 C64.03284878 33.49736427 54.33882793 33.50250577 44.64473429 33.49423841 C39.6979671 33.49032726 34.75132663 33.49128419 29.80457497 33.50529575 C25.27564005 33.51800665 20.74692742 33.5168619 16.21799293 33.50470504 C14.58002464 33.50274317 12.94204076 33.50584906 11.3040944 33.5145494 C-6.58645867 33.60355901 -6.58645867 33.60355901 -12.80037308 28.41547108 C-13.25541214 27.82765858 -13.7104512 27.23984608 -14.17927933 26.63422108 C-14.65236526 26.04640858 -15.1254512 25.45859608 -15.61287308 24.85297108 C-18.19889849 20.91576975 -18.20856333 16.68104302 -17.74177933 12.13422108 C-14.72605754 3.58967601 -8.73876749 0.01237781 0 0 Z " fill="#9AFBCE" transform="translate(43.74177932739258,440.86577892303467)"/>
<path d="M0 0 C0.91578323 -0.0065712 1.83156647 -0.0131424 2.77510071 -0.01991272 C5.80937786 -0.03964229 8.84360552 -0.05130777 11.87792969 -0.0612793 C12.91453484 -0.06535482 13.95113998 -0.06943035 15.01915741 -0.07362938 C20.5060964 -0.09448895 25.9930104 -0.10879101 31.47998047 -0.11816406 C37.14380959 -0.12922643 42.80724562 -0.16362491 48.47093582 -0.20333576 C52.82902755 -0.22949655 57.18702556 -0.23785545 61.5451889 -0.24144554 C63.6327454 -0.2463131 65.72029767 -0.25793186 67.8077774 -0.27648354 C70.73284441 -0.30086246 73.65689349 -0.29991204 76.58203125 -0.29296875 C77.44047134 -0.30577881 78.29891144 -0.31858887 79.18336487 -0.33178711 C84.9643203 -0.28189858 88.28518139 0.8659712 93.04980469 4.17700195 C96.73613352 7.95785204 97.35341849 11.05829064 97.54980469 16.17700195 C97.36610647 21.29521425 96.61977056 24.31757939 93.04980469 28.17700195 C87.41222443 33.3917637 82.71496885 33.33000461 75.27734375 33.35400391 C73.94975037 33.3638607 73.94975037 33.3638607 72.59533691 33.37391663 C69.66870026 33.39361374 66.74211484 33.40530424 63.81542969 33.4152832 C62.31341633 33.42139649 62.31341633 33.42139649 60.78105927 33.42763329 C55.48099474 33.44847871 50.180956 33.46278706 44.88085938 33.47216797 C39.4155686 33.48322926 33.9506853 33.51763051 28.48553848 33.55733967 C24.27495584 33.58352254 20.06447006 33.5918613 15.85381317 33.59544945 C13.83965045 33.60031104 11.82549193 33.61191279 9.811409 33.63048744 C6.98722803 33.65491431 4.16409869 33.65390735 1.33984375 33.64697266 C0.51462219 33.65978271 -0.31059937 33.67259277 -1.16082764 33.68579102 C-6.81432237 33.63541775 -11.26565629 32.44080113 -15.95019531 29.17700195 C-20.11934188 23.93884345 -21.49746956 19.85374773 -20.95019531 13.17700195 C-19.14026919 7.90460848 -16.7156715 4.23179438 -11.95019531 1.17700195 C-7.97189427 -0.14909839 -4.14878723 0.01287388 0 0 Z " fill="#2EBBF5" transform="translate(46.9501953125,120.822998046875)"/>
<path d="M0 0 C0.89788239 -0.0049649 1.79576477 -0.00992981 2.72085571 -0.01504517 C5.69501509 -0.02966519 8.66912112 -0.03646867 11.64331055 -0.04199219 C13.70973207 -0.04774393 15.77615358 -0.05350166 17.84257507 -0.05926514 C22.17776742 -0.06977478 26.51294123 -0.07561764 30.84814453 -0.07910156 C36.39990203 -0.08458508 41.95141412 -0.10861033 47.50309467 -0.13707352 C51.77278863 -0.15570861 56.04242358 -0.16090597 60.31215477 -0.16243744 C62.35865813 -0.1654627 64.40516048 -0.17348696 66.45162392 -0.18662262 C69.31689682 -0.20370055 72.18157168 -0.20179848 75.046875 -0.1953125 C76.31187584 -0.20913467 76.31187584 -0.20913467 77.60243225 -0.22323608 C83.23522408 -0.18334706 87.57918976 0.69826479 91.86206055 4.69628906 C96.44922033 10.69488263 96.93215004 14.66279347 96.2175293 22.16113281 C95.21575406 25.65777506 93.6176945 28.18859507 90.55421448 30.31645107 C85.20241615 33.13380797 80.80419265 33.74130012 74.80737305 33.69458008 C73.90221954 33.70319565 72.99706604 33.71181122 72.06448364 33.72068787 C69.09436852 33.74325431 66.12520401 33.73662665 63.1550293 33.72753906 C61.07812217 33.7327784 59.00121743 33.73905602 56.92431641 33.74632263 C52.58020802 33.75670937 48.23642757 33.75218952 43.89233398 33.73754883 C38.33727871 33.72035524 32.78325725 33.74387299 27.22831726 33.77903843 C22.94219159 33.80104183 18.65631224 33.79956392 14.37014771 33.79127312 C12.3225084 33.79045538 10.27485068 33.79728464 8.2272644 33.81204414 C5.36009896 33.82954635 2.49477823 33.8149009 -0.37231445 33.79223633 C-1.20995331 33.80392853 -2.04759216 33.81562073 -2.91061401 33.82766724 C-8.90240441 33.73173721 -13.22611491 32.13309774 -17.7824707 28.16113281 C-21.19236475 23.41035454 -22.62447965 19.05519547 -21.7824707 13.16113281 C-19.83241119 7.34382044 -17.30838683 4.1004499 -11.7824707 1.16113281 C-7.85129547 -0.14925893 -4.09848012 0.00539379 0 0 Z " fill="#62DAE2" transform="translate(47.782470703125,269.8388671875)"/>
</svg>
