<?xml version="1.0" encoding="UTF-8"?>
<svg version="1.1" xmlns="http://www.w3.org/2000/svg" width="512" height="512">
<path d="M0 0 C0.72828395 -0.00465992 1.45656791 -0.00931984 2.20692107 -0.01412097 C4.65448499 -0.02609983 7.10149675 -0.01666463 9.54906559 -0.00736332 C11.31864751 -0.01153498 13.08822676 -0.01701156 14.85780102 -0.02368313 C19.72624883 -0.03817852 24.59452795 -0.03388026 29.46298516 -0.02651632 C34.71120281 -0.02179707 39.9593833 -0.03428345 45.20758915 -0.04453373 C55.49138756 -0.06175138 65.77512494 -0.06255561 76.05893403 -0.05732083 C84.41546391 -0.05328348 92.77197573 -0.05471749 101.12850475 -0.06006908 C102.91083503 -0.06119172 102.91083503 -0.06119172 104.72917198 -0.06233703 C107.14284293 -0.06386847 109.55651387 -0.06540681 111.97018481 -0.066952 C134.61757234 -0.08068772 157.26492535 -0.07523177 179.9123121 -0.06376678 C200.64289224 -0.0538328 221.37338316 -0.06677607 242.10394954 -0.09070098 C263.37775956 -0.11506833 284.65152798 -0.1247057 305.92535168 -0.11804825 C317.87394878 -0.11455083 329.82247723 -0.11682254 341.7710638 -0.13429928 C351.94243796 -0.14899169 362.11369511 -0.1496955 372.2850669 -0.13222837 C377.47667638 -0.12369165 382.66807661 -0.12163383 387.85967541 -0.13687992 C392.60996307 -0.15065757 397.35986084 -0.14605351 402.11012555 -0.12664068 C403.83079708 -0.12285901 405.55149933 -0.12586458 407.27214365 -0.13625234 C409.60773417 -0.14935261 411.94196506 -0.13790266 414.27749634 -0.12025452 C415.57570783 -0.12014718 416.87391931 -0.12003984 418.21147054 -0.11992925 C423.5866645 0.65049095 426.62510871 3.08977343 430.04660511 7.19134617 C431.9719757 10.9011432 432.19528494 13.2401638 432.18268681 17.40384579 C432.18610451 18.08684203 432.1895222 18.76983827 432.19304347 19.47353137 C432.19960292 21.74937233 432.17768045 24.02401908 432.1557703 26.29975033 C432.1546414 27.93608224 432.15527653 29.57241618 432.15754032 31.20874691 C432.15868672 35.64231274 432.13518955 40.07544461 432.10724449 44.5089097 C432.08221842 49.14535439 432.07988789 53.78180931 432.07514286 58.41831112 C432.06271663 67.19428382 432.02989978 75.97005691 431.9897449 84.74594176 C431.94501623 94.73860743 431.92303739 104.7312827 431.90296316 114.72402358 C431.86116686 135.27623265 431.79082163 155.82826211 431.70166874 176.38031673 C432.33536381 176.37143429 432.96905888 176.36255184 433.62195683 176.35340023 C440.24088326 176.26463614 446.85963951 176.20446194 453.47901249 176.16059017 C455.94653032 176.14052379 458.41400089 176.11326429 460.88135624 176.07855892 C464.43616267 176.02982367 467.99033818 176.00729735 471.54541874 175.98969173 C473.1896381 175.95872402 473.1896381 175.95872402 474.86707401 175.9271307 C481.09172373 175.92532324 486.76727515 176.21218683 491.70166874 180.38031673 C496.87742766 185.94853572 496.26338502 191.79165777 496.20960331 199.09601498 C496.21584327 200.39139423 496.22208323 201.68677348 496.22851229 203.02140665 C496.24519994 206.61070718 496.23696211 210.19958193 496.22456741 213.78888392 C496.21551683 217.6621693 496.22948667 221.53538147 496.2404871 225.40865231 C496.25827686 232.99389699 496.25443033 240.57898338 496.24283653 248.16423428 C496.23380427 254.32871781 496.23257731 260.49315697 496.2369318 266.65764523 C496.23754473 267.53488946 496.23815767 268.4121337 496.23878917 269.31596109 C496.24006807 271.09804651 496.24136492 272.88013192 496.24267954 274.66221732 C496.25408667 291.37422122 496.24096954 308.08613737 496.21947807 324.79812688 C496.20160696 339.13888125 496.20471103 353.47950611 496.22315311 367.82025814 C496.24455747 384.47231412 496.25298802 401.12429318 496.24070406 417.77636099 C496.23942986 419.55190339 496.23817238 421.32744581 496.2369318 423.10298824 C496.2363147 423.976597 496.2356976 424.85020575 496.23506179 425.7502875 C496.23160759 431.90761725 496.23743876 438.06489823 496.24685001 444.22222042 C496.25806655 451.72561296 496.25503727 459.22883812 496.23372704 466.73221147 C496.22321189 470.56084397 496.21910249 474.38919734 496.23232365 478.2178278 C496.24643505 482.36700122 496.22959015 486.51546941 496.20960331 490.66461849 C496.2185262 491.87647933 496.22744908 493.08834018 496.23664236 494.33692408 C496.17931554 500.45092521 496.13380043 504.73050957 491.70166874 509.38031673 C487.56281733 512.45791015 484.50986449 512.75658487 479.40333748 512.76063347 C478.67505353 512.76529339 477.94676957 512.76995331 477.19641641 512.77475443 C474.74885249 512.78673329 472.30184073 512.77729809 469.85427189 512.76799679 C468.08468997 512.77216844 466.31511072 512.77764503 464.54553646 512.7843166 C459.67708865 512.79881199 454.80880953 512.79451373 449.94035232 512.78714979 C444.69213467 512.78243053 439.44395417 512.79491692 434.19574833 512.8051672 C423.91194992 512.82238485 413.62821254 512.82318908 403.34440345 512.81795429 C394.98787356 512.81391695 386.63136175 512.81535096 378.27483273 512.82070255 C376.49250245 512.82182519 376.49250245 512.82182519 374.6741655 512.8229705 C372.26049455 512.82450193 369.84682361 512.82604028 367.43315267 512.82758547 C344.78576514 512.84132119 322.13841213 512.83586524 299.49102538 512.82440025 C278.76044523 512.81446626 258.02995432 512.82740954 237.29938794 512.85133445 C216.02557792 512.8757018 194.7518095 512.88533917 173.4779858 512.87868172 C161.5293887 512.8751843 149.58086025 512.87745601 137.63227367 512.89493275 C127.46089952 512.90962516 117.28964237 512.91032897 107.11827058 512.89286184 C101.9266611 512.88432512 96.73526087 512.8822673 91.54366207 512.89751339 C86.79337441 512.91129104 82.04347664 512.90668698 77.29321193 512.88727415 C75.5725404 512.88349248 73.85183815 512.88649805 72.13119382 512.8968858 C69.79560331 512.90998608 67.46137242 512.89853613 65.12584114 512.88088799 C63.82762965 512.88078065 62.52941816 512.88067331 61.19186693 512.88056272 C55.81667298 512.11014252 52.77822877 509.67086003 49.35673237 505.5692873 C47.43136178 501.85949027 47.20805254 499.52046967 47.22065067 495.35678768 C47.21723297 494.67379144 47.21381527 493.9907952 47.21029401 493.2871021 C47.20373456 491.01126114 47.22565702 488.73661439 47.24756718 486.46088314 C47.24869608 484.82455123 47.24806095 483.18821729 47.24579716 481.55188656 C47.24465076 477.11832072 47.26814793 472.68518886 47.29609299 468.25172377 C47.32111906 463.61527908 47.32344959 458.97882416 47.32819462 454.34232235 C47.34062085 445.56634965 47.3734377 436.79057656 47.41359258 428.01469171 C47.45832125 418.02202604 47.48030009 408.02935077 47.50037432 398.03660989 C47.54217062 377.48440081 47.61251585 356.93237136 47.70166874 336.38031673 C47.06797367 336.38919918 46.4342786 336.39808163 45.78138065 336.40723324 C39.16245422 336.49599733 32.54369797 336.55617152 25.92432499 336.6000433 C23.45680716 336.62010968 20.98933659 336.64736918 18.52198124 336.68207455 C14.96717481 336.7308098 11.4129993 336.75333612 7.85791874 336.77094173 C6.21369938 336.80190945 6.21369938 336.80190945 4.53626347 336.83350277 C-1.68838625 336.83531023 -7.36393767 336.54844664 -12.29833126 332.38031673 C-17.47409018 326.81209775 -16.86004754 320.9689757 -16.80626583 313.66461849 C-16.81250579 312.36923924 -16.81874576 311.07385999 -16.82517481 309.73922682 C-16.84186246 306.14992629 -16.83362463 302.56105154 -16.82122993 298.97174954 C-16.81217935 295.09846417 -16.82614919 291.22525199 -16.83714962 287.35198116 C-16.85493938 279.76673648 -16.85109286 272.18165008 -16.83949906 264.59639919 C-16.8304668 258.43191565 -16.82923983 252.26747649 -16.83359432 246.10298824 C-16.83420725 245.22574401 -16.83482019 244.34849977 -16.83545169 243.44467238 C-16.83673059 241.66258695 -16.83802744 239.88050155 -16.83934206 238.09841615 C-16.85074919 221.38641225 -16.83763206 204.6744961 -16.81614059 187.96250659 C-16.79826948 173.62175222 -16.80137355 159.28112736 -16.81981564 144.94037533 C-16.84122 128.28831935 -16.84965054 111.63634029 -16.83736658 94.98427248 C-16.83609238 93.20873007 -16.8348349 91.43318766 -16.83359432 89.65764523 C-16.83297722 88.78403647 -16.83236012 87.91042771 -16.83172432 87.01034597 C-16.82827011 80.85301622 -16.83410128 74.69573524 -16.84351254 68.53841305 C-16.85472907 61.03502051 -16.85169979 53.53179535 -16.83038956 46.028422 C-16.81987442 42.1997895 -16.81576501 38.37143613 -16.82898617 34.54280567 C-16.84309758 30.39363225 -16.82625267 26.24516406 -16.80626583 22.09601498 C-16.81518872 20.88415413 -16.8241116 19.67229329 -16.83330488 18.42370939 C-16.77597807 12.30970825 -16.73046295 8.03012389 -12.29833126 3.38031673 C-8.15947985 0.30272332 -5.10652702 0.0040486 0 0 Z " fill="#F2F7F8" transform="translate(16.298331260681152,-0.38031673431396484)"/>
<path d="M0 0 C27.79851394 -0.09026168 55.5969094 -0.1639596 83.39553261 -0.20724869 C96.30264148 -0.22788197 109.20965289 -0.25601735 122.11669922 -0.30175781 C133.36527234 -0.34160195 144.6137749 -0.36742724 155.86241663 -0.37635398 C161.81959732 -0.38157279 167.77657612 -0.39385511 173.73369217 -0.42292023 C179.33968506 -0.45005084 184.9453927 -0.45844965 190.55144501 -0.45243073 C192.60978876 -0.45353201 194.66814196 -0.46149973 196.72642899 -0.4768219 C199.53603889 -0.49671274 202.34457066 -0.49194231 205.15420532 -0.48101807 C205.96939121 -0.49266943 206.7845771 -0.5043208 207.62446558 -0.51632524 C212.86834668 -0.46118439 215.90581501 0.44044766 220 4 C223.65496304 8.38144455 224.49813516 11.36633044 224.48101807 17.02352905 C224.48443577 17.70652529 224.48785347 18.38952153 224.49137473 19.09321463 C224.49793418 21.36905559 224.47601171 23.64370234 224.45410156 25.91943359 C224.45297266 27.5557655 224.45360779 29.19209944 224.45587158 30.82843018 C224.45701798 35.26199601 224.43352081 39.69512787 224.40557575 44.12859297 C224.38054968 48.76503765 224.37821915 53.40149258 224.37347412 58.03799438 C224.36104789 66.81396708 224.32823104 75.58974017 224.28807616 84.36562502 C224.24334749 94.3582907 224.22136865 104.35096597 224.20129442 114.34370685 C224.15949812 134.89591592 224.08915289 155.44794538 224 176 C224.63369507 175.99111755 225.26739014 175.98223511 225.92028809 175.9730835 C232.53921452 175.8843194 239.15797077 175.82414521 245.77734375 175.78027344 C248.24486158 175.76020705 250.71233215 175.73294756 253.1796875 175.69824219 C256.73449393 175.64950694 260.28866944 175.62698061 263.84375 175.609375 C265.48796936 175.57840729 265.48796936 175.57840729 267.16540527 175.54681396 C273.39005499 175.54500651 279.06560641 175.83187009 284 180 C289.17575892 185.56821898 288.56171628 191.41134104 288.50793457 198.71569824 C288.51729451 200.65876712 288.51729451 200.65876712 288.52684355 202.64108992 C288.5435312 206.23039045 288.53529337 209.81926519 288.52289867 213.40856719 C288.51384809 217.28185256 288.52781793 221.15506474 288.53881836 225.02833557 C288.55660812 232.61358026 288.55276159 240.19866665 288.5411678 247.78391755 C288.53213553 253.94840108 288.53090857 260.11284024 288.53526306 266.27732849 C288.53587599 267.15457273 288.53648893 268.03181696 288.53712043 268.93564436 C288.53839933 270.71772978 288.53969618 272.49981519 288.5410108 274.28190058 C288.55241793 290.99390449 288.5393008 307.70582063 288.51780933 324.41781014 C288.49993822 338.75856451 288.50304229 353.09918937 288.52148438 367.43994141 C288.54288874 384.09199738 288.55131928 400.74397644 288.53903532 417.39604425 C288.53776112 419.17158666 288.53650364 420.94712908 288.53526306 422.72267151 C288.53433741 424.03308464 288.53433741 424.03308464 288.53339306 425.36997077 C288.52993885 431.52730052 288.53577002 437.68458149 288.54518127 443.84190369 C288.55639781 451.34529623 288.55336853 458.84852138 288.5320583 466.35189474 C288.52154315 470.18052723 288.51743375 474.00888061 288.53065491 477.83751106 C288.54476631 481.98668448 288.52792141 486.13515267 288.50793457 490.28430176 C288.5213189 492.10209302 288.5213189 492.10209302 288.53497362 493.95660734 C288.4776468 500.07060848 288.43213169 504.35019284 284 509 C279.86114859 512.07759342 276.80819575 512.37626814 271.70166874 512.38031673 C270.97338479 512.38497665 270.24510083 512.38963657 269.49474767 512.3944377 C267.04718375 512.40641656 264.60017199 512.39698136 262.15260315 512.38768005 C260.38302123 512.39185171 258.61344198 512.3973283 256.84386772 512.40399987 C251.97541991 512.41849525 247.10714079 512.41419699 242.23868358 512.40683305 C236.99046593 512.4021138 231.74228543 512.41460019 226.49407959 512.42485046 C216.21028118 512.44206812 205.9265438 512.44287235 195.64273471 512.43763756 C187.28620483 512.43360022 178.92969301 512.43503423 170.57316399 512.44038582 C168.79083371 512.44150845 168.79083371 512.44150845 166.97249676 512.44265376 C164.55882581 512.4441852 162.14515487 512.44572355 159.73148393 512.44726873 C137.0840964 512.46100445 114.43674339 512.4555485 91.78935664 512.44408352 C71.0587765 512.43414953 50.32828558 512.4470928 29.5977192 512.47101771 C8.32390918 512.49538506 -12.94985924 512.50502243 -34.22368294 512.49836498 C-46.17228004 512.49486757 -58.12080849 512.49713928 -70.06939507 512.51461601 C-80.24076922 512.52930843 -90.41202637 512.53001224 -100.58339816 512.5125451 C-105.77500764 512.50400839 -110.96640787 512.50195057 -116.15800667 512.51719666 C-120.90829433 512.5309743 -125.6581921 512.52637025 -130.40845681 512.50695742 C-132.12912834 512.50317574 -133.84983059 512.50618131 -135.57047492 512.51656907 C-137.90606543 512.52966935 -140.24029632 512.51821939 -142.5758276 512.50057125 C-143.87403909 512.50046391 -145.17225057 512.50035658 -146.50980181 512.50024599 C-151.88388265 511.72998532 -154.9224686 509.29061744 -158.34493637 505.19134331 C-160.27494633 501.46984024 -160.49357957 499.11520754 -160.48101807 494.93850708 C-160.48614462 493.90788739 -160.48614462 493.90788739 -160.49137473 492.8564471 C-160.49793465 490.56678932 -160.47601086 488.27831829 -160.45410156 485.98876953 C-160.45297267 484.34258553 -160.45360777 482.69639951 -160.45587158 481.05021667 C-160.45701802 476.58979328 -160.43352017 472.12980121 -160.40557575 467.66947794 C-160.38055037 463.0050059 -160.3782192 458.34052369 -160.37347412 453.67599487 C-160.36104769 444.8468988 -160.32823056 436.01800113 -160.28807616 427.18899238 C-160.24334812 417.13586819 -160.22136881 407.08273447 -160.20129442 397.02953553 C-160.15949761 376.3528884 -160.08614938 355.67651319 -160 335 C-138.88 335 -117.76 335 -96 335 C-95.97421875 342.1259375 -95.9484375 349.251875 -95.921875 356.59375 C-95.89670142 361.11461907 -95.8703645 365.63542159 -95.83984375 370.15625 C-95.79153599 377.32812737 -95.74748094 384.49985065 -95.72900391 391.671875 C-95.71383336 397.45570502 -95.67937993 403.23913127 -95.63169098 409.02278137 C-95.61688144 411.22667425 -95.60895923 413.43062478 -95.60811615 415.63456726 C-95.60574355 418.72751653 -95.57863893 421.81935265 -95.54589844 424.91210938 C-95.5509288 425.81842102 -95.55595917 426.72473267 -95.56114197 427.6585083 C-95.46898356 433.30488658 -94.80213187 438.58886939 -91 443 C-84.87618961 447.63839859 -79.46505758 447.5651438 -71.96128845 447.50120544 C-70.75080937 447.50673984 -69.5403303 447.51227424 -68.29317003 447.51797634 C-64.94537634 447.52921283 -61.59849368 447.52257024 -58.25076997 447.50823963 C-54.63586096 447.49711499 -51.02101735 447.50907729 -47.40611267 447.51808167 C-40.32966835 447.53200561 -33.25340263 447.52446446 -26.17696684 447.50940608 C-17.93527521 447.49253631 -9.69362795 447.49575743 -1.45192439 447.49950016 C13.25319651 447.5053771 27.95823175 447.49121322 42.66333008 447.46655273 C56.93126638 447.44262808 71.19908826 447.43555039 85.46704102 447.44604492 C101.00684741 447.45745448 116.54660089 447.45938406 132.08640665 447.44494683 C133.74341515 447.44342099 135.40042366 447.44190064 137.05743217 447.44038582 C138.28033335 447.4392491 138.28033335 447.4392491 139.52793961 447.43808941 C145.27249551 447.43334722 151.01702778 447.43519753 156.76158333 447.43945122 C163.76171397 447.44437807 170.76173644 447.43839257 177.76184232 447.41855692 C181.33323118 447.40868621 184.90445532 447.40357737 188.47585297 447.41144943 C192.34676405 447.41980714 196.21738579 447.40492422 200.08827209 447.38768005 C201.78247531 447.39669512 201.78247531 447.39669512 203.51090485 447.40589231 C209.07037003 447.36071959 213.24679344 447.23215508 218 444 C221.7314205 439.96603189 223.12652969 436.95429993 223.12025452 431.50117493 C223.12162918 430.57990814 223.12300385 429.65864136 223.12442017 428.7094574 C223.12082489 427.70101273 223.11722961 426.69256805 223.11352539 425.65356445 C223.11374443 424.05819855 223.11374443 424.05819855 223.1139679 422.43060303 C223.11327012 418.90814183 223.10548401 415.38573323 223.09765625 411.86328125 C223.09579159 409.4237623 223.09436791 406.98424297 223.09336853 404.54472351 C223.08954713 398.11838755 223.07972004 391.69207412 223.06866455 385.26574707 C223.05844233 378.71037094 223.05386917 372.15499117 223.04882812 365.59960938 C223.03809746 352.73306329 223.02121728 339.86653284 223 327 C222.2575 327.94875 221.515 328.8975 220.75 329.875 C218.7310892 332.45471935 217.12151273 333.91850695 214 335 C211.09867537 335.18621438 208.2952177 335.26109024 205.39471436 335.24050903 C204.51741645 335.24221788 203.64011855 335.24392673 202.73623586 335.24568737 C199.79119702 335.24898641 196.8463851 335.23797169 193.90136719 335.22705078 C191.79242966 335.22648676 189.68349174 335.22680305 187.57455444 335.22793579 C181.84353486 335.22851065 176.11259865 335.21673479 170.38159847 335.20278788 C164.39447894 335.19030268 158.40735759 335.18911176 152.42022705 335.18673706 C141.08014906 335.18051579 129.74010953 335.1640962 118.40004849 335.14403808 C105.49089595 335.12169922 92.58174158 335.11069072 79.67257452 335.10064721 C53.11502343 335.07973054 26.55752508 335.04304621 0 335 C0 313.88 0 292.76 0 271 C6.72334717 270.98598145 6.72334717 270.98598145 13.58251953 270.97167969 C28.37866027 270.93793843 43.17466176 270.88260683 57.97068977 270.81609726 C66.94302799 270.77629444 75.91527834 270.74390828 84.88769531 270.72900391 C92.70841713 270.71599381 100.52894572 270.68904566 108.34955871 270.64538693 C112.49023857 270.62275755 116.63067997 270.6070902 120.77142715 270.60811615 C124.67035234 270.6088619 128.56875011 270.59094584 132.46753883 270.55883217 C133.89694501 270.55032657 135.32641029 270.54858778 136.75583076 270.55419731 C146.75052288 270.82804653 146.75052288 270.82804653 155 266 C158.9259505 261.53253909 159.14868446 257.47321724 159.14717102 251.73895264 C159.15268605 250.62158104 159.15268605 250.62158104 159.1583125 249.48163629 C159.16935102 246.97831048 159.17319346 244.47502619 159.17700195 241.97167969 C159.18326646 240.17966073 159.18991325 238.38764307 159.19691467 236.59562683 C159.21432505 231.72152749 159.22487649 226.84743796 159.2331202 221.97331524 C159.23827018 218.92841865 159.24434591 215.88352511 159.25063133 212.83863068 C159.26968335 203.31267731 159.28391458 193.78673169 159.2922433 184.26076293 C159.3020174 173.26309362 159.32834142 162.26562548 159.36874419 151.26802707 C159.39889835 142.76856272 159.4137115 134.26915606 159.41702431 125.76963925 C159.41937553 120.69275824 159.42834545 115.61609215 159.45348549 110.53926849 C159.476759 105.76218674 159.48100232 100.98546153 159.47072411 96.20833778 C159.47022847 94.45680112 159.47655723 92.70524694 159.49028015 90.95376396 C159.50799497 88.55841037 159.50089587 86.16433696 159.48774719 83.76898193 C159.49871644 83.07937464 159.50968568 82.38976736 159.52098733 81.67926288 C159.45028969 76.32765726 157.90576369 73.33648011 155 69 C150.93670599 65.30609635 147.38529859 64.87357925 142.02058411 64.84178162 C140.77116531 64.8319928 139.52174652 64.82220398 138.23446655 64.81211853 C136.84747353 64.80621436 135.4604801 64.80040391 134.07348633 64.79467773 C132.61493146 64.78509895 131.15637937 64.77508887 129.6978302 64.76467896 C125.73534205 64.73762386 121.77284199 64.71661757 117.81031251 64.69667697 C113.67028772 64.67482116 109.5302997 64.64743049 105.39030457 64.62062073 C97.54932942 64.57068837 89.70833387 64.52575155 81.86731881 64.48259836 C72.94115541 64.43323063 64.01502889 64.37831078 55.08890116 64.32291877 C36.72596681 64.20909038 18.36299858 64.10298618 0 64 C0 42.88 0 21.76 0 0 Z " fill="#BED2E5" transform="translate(224,0)"/>
<path d="M0 0 C27.79851394 -0.09026168 55.5969094 -0.1639596 83.39553261 -0.20724869 C96.30264148 -0.22788197 109.20965289 -0.25601735 122.11669922 -0.30175781 C133.36527234 -0.34160195 144.6137749 -0.36742724 155.86241663 -0.37635398 C161.81959732 -0.38157279 167.77657612 -0.39385511 173.73369217 -0.42292023 C179.33968506 -0.45005084 184.9453927 -0.45844965 190.55144501 -0.45243073 C192.60978876 -0.45353201 194.66814196 -0.46149973 196.72642899 -0.4768219 C199.53603889 -0.49671274 202.34457066 -0.49194231 205.15420532 -0.48101807 C205.96939121 -0.49266943 206.7845771 -0.5043208 207.62446558 -0.51632524 C212.86834668 -0.46118439 215.90581501 0.44044766 220 4 C225.1618687 9.45550527 224.55394933 15.26364973 224.48774719 22.35383606 C224.49187046 23.61034664 224.49599372 24.86685723 224.50024194 26.16144389 C224.51111227 29.64237255 224.49707516 33.12282128 224.47892153 36.60370314 C224.46369278 40.36045843 224.47158119 44.11717426 224.47660828 47.87394714 C224.48283358 55.23161963 224.46784442 62.58910407 224.44588266 69.94674043 C224.42118379 78.51777494 224.41827746 87.0887751 224.41647889 95.65983995 C224.41260205 110.95661725 224.39013424 126.25330993 224.35668945 141.55004883 C224.32427798 156.38631544 224.30301439 171.22253742 224.29516602 186.05883789 C224.29468052 186.97216756 224.29419503 187.88549723 224.29369483 188.82650355 C224.29176601 192.49793437 224.28985388 196.1693652 224.28797873 199.84079604 C224.28043833 213.98664049 224.26481176 228.13247762 224.24748212 242.27831307 C224.24225147 246.54916954 224.23731824 250.82002587 224.2331202 255.09088349 C224.22418556 264.07255651 224.21236134 273.0542082 224.19155417 282.03586248 C224.18298212 285.74933456 224.17588209 289.46279207 224.17303848 293.17627335 C224.16986242 297.20594461 224.15891848 301.23555761 224.14717102 305.26521301 C224.14735538 306.4333168 224.14753975 307.60142058 224.14772969 308.80492145 C224.07670095 326.12623453 224.07670095 326.12623453 220.6875 330.4375 C215.79436133 335.10305083 212.01368935 335.28747554 205.39471436 335.24050903 C204.51741645 335.24221788 203.64011855 335.24392673 202.73623586 335.24568737 C199.79119702 335.24898641 196.8463851 335.23797169 193.90136719 335.22705078 C191.79242966 335.22648676 189.68349174 335.22680305 187.57455444 335.22793579 C181.84353486 335.22851065 176.11259865 335.21673479 170.38159847 335.20278788 C164.39447894 335.19030268 158.40735759 335.18911176 152.42022705 335.18673706 C141.08014906 335.18051579 129.74010953 335.1640962 118.40004849 335.14403808 C105.49089595 335.12169922 92.58174158 335.11069072 79.67257452 335.10064721 C53.11502343 335.07973054 26.55752508 335.04304621 0 335 C0 313.88 0 292.76 0 271 C6.72334717 270.98598145 6.72334717 270.98598145 13.58251953 270.97167969 C28.37866027 270.93793843 43.17466176 270.88260683 57.97068977 270.81609726 C66.94302799 270.77629444 75.91527834 270.74390828 84.88769531 270.72900391 C92.70841713 270.71599381 100.52894572 270.68904566 108.34955871 270.64538693 C112.49023857 270.62275755 116.63067997 270.6070902 120.77142715 270.60811615 C124.67035234 270.6088619 128.56875011 270.59094584 132.46753883 270.55883217 C133.89694501 270.55032657 135.32641029 270.54858778 136.75583076 270.55419731 C146.75052288 270.82804653 146.75052288 270.82804653 155 266 C158.9259505 261.53253909 159.14868446 257.47321724 159.14717102 251.73895264 C159.15084771 250.99403824 159.1545244 250.24912385 159.1583125 249.48163629 C159.16935102 246.97831048 159.17319346 244.47502619 159.17700195 241.97167969 C159.18326646 240.17966073 159.18991325 238.38764307 159.19691467 236.59562683 C159.21432505 231.72152749 159.22487649 226.84743796 159.2331202 221.97331524 C159.23827018 218.92841865 159.24434591 215.88352511 159.25063133 212.83863068 C159.26968335 203.31267731 159.28391458 193.78673169 159.2922433 184.26076293 C159.3020174 173.26309362 159.32834142 162.26562548 159.36874419 151.26802707 C159.39889835 142.76856272 159.4137115 134.26915606 159.41702431 125.76963925 C159.41937553 120.69275824 159.42834545 115.61609215 159.45348549 110.53926849 C159.476759 105.76218674 159.48100232 100.98546153 159.47072411 96.20833778 C159.47022847 94.45680112 159.47655723 92.70524694 159.49028015 90.95376396 C159.50799497 88.55841037 159.50089587 86.16433696 159.48774719 83.76898193 C159.49871644 83.07937464 159.50968568 82.38976736 159.52098733 81.67926288 C159.45028969 76.32765726 157.90576369 73.33648011 155 69 C150.93670599 65.30609635 147.38529859 64.87357925 142.02058411 64.84178162 C140.77116531 64.8319928 139.52174652 64.82220398 138.23446655 64.81211853 C136.84747353 64.80621436 135.4604801 64.80040391 134.07348633 64.79467773 C132.61493146 64.78509895 131.15637937 64.77508887 129.6978302 64.76467896 C125.73534205 64.73762386 121.77284199 64.71661757 117.81031251 64.69667697 C113.67028772 64.67482116 109.5302997 64.64743049 105.39030457 64.62062073 C97.54932942 64.57068837 89.70833387 64.52575155 81.86731881 64.48259836 C72.94115541 64.43323063 64.01502889 64.37831078 55.08890116 64.32291877 C36.72596681 64.20909038 18.36299858 64.10298618 0 64 C0 42.88 0 21.76 0 0 Z " fill="#E1EBF2" transform="translate(224,0)"/>
<path d="M0 0 C0.33 0 0.66 0 1 0 C1.07013648 14.49932613 1.12281131 28.99862588 1.15543652 43.49808693 C1.1708937 50.23071596 1.19196109 56.96323948 1.22631836 63.69580078 C1.25945688 70.19264709 1.27685189 76.68942493 1.28463173 83.18635178 C1.29017629 85.66547751 1.30100336 88.14459721 1.31719017 90.6236763 C1.33895573 94.09511549 1.34196721 97.56610125 1.34057617 101.03759766 C1.35675491 102.57616425 1.35675491 102.57616425 1.3732605 104.14581299 C1.34664987 110.27990453 0.81758331 114.9109308 -3.5 119.64453125 C-7.79074658 122.9855032 -10.60013344 124.12347619 -15.972332 124.13422108 C-17.00507334 124.13867892 -18.03781469 124.14313676 -19.10185122 124.14772969 C-20.24005856 124.14754533 -21.37826589 124.14736097 -22.55096436 124.14717102 C-23.75732017 124.15084771 -24.96367598 124.1545244 -26.20658803 124.1583125 C-29.56117524 124.1674417 -32.91571351 124.17204954 -36.27030849 124.17470181 C-39.88597309 124.17860435 -43.50162351 124.18818268 -47.11727905 124.19691467 C-55.85176597 124.21667986 -64.58625405 124.22674508 -73.32075775 124.23564246 C-77.4331513 124.24002502 -81.54554356 124.24539189 -85.6579361 124.25063133 C-99.32679858 124.26764319 -112.99566026 124.28213786 -126.66453171 124.28938007 C-130.21190136 124.29128999 -133.759271 124.29321032 -137.30664062 124.29516602 C-138.62917457 124.29589163 -138.62917457 124.29589163 -139.97842637 124.2966319 C-154.26457023 124.30493407 -168.55063041 124.33027433 -182.83673772 124.36274669 C-197.50103911 124.39580721 -212.16529795 124.4138279 -226.82963681 124.41702431 C-235.0643414 124.41919028 -243.29892393 124.4279516 -251.53359222 124.45348549 C-258.54586485 124.4751787 -265.55798578 124.48324972 -272.57028815 124.47351871 C-276.14791556 124.46897003 -279.72522989 124.47089275 -283.30281448 124.49028015 C-287.18237372 124.51112239 -291.06150032 124.50093924 -294.94110107 124.48774719 C-296.07038552 124.49871644 -297.19966997 124.50968568 -298.36317515 124.52098733 C-304.80595342 124.46799054 -308.75599019 123.83381477 -314 120 C-319.20631006 114.43463408 -319.28372502 108.48103184 -319.22705078 101.25268555 C-319.22734283 100.27659836 -319.22763489 99.30051117 -319.22793579 98.29484558 C-319.22654482 95.07537888 -319.21099438 91.85614492 -319.1953125 88.63671875 C-319.19158155 86.4018415 -319.18873496 84.1669626 -319.18673706 81.93208313 C-319.1791071 76.0548347 -319.15946398 70.17768539 -319.1373291 64.30047607 C-319.11685701 58.30124248 -319.10773242 52.30199284 -319.09765625 46.30273438 C-319.07621757 34.53511274 -319.04208922 22.76756462 -319 11 C-318.01949159 10.99910437 -318.01949159 10.99910437 -317.01917493 10.99819064 C-278.28936188 10.9623077 -239.55962892 10.9056857 -200.82988819 10.82207905 C-196.18102603 10.81206142 -191.53216353 10.80221732 -186.88330078 10.79248047 C-185.95778406 10.7905391 -185.03226735 10.78859772 -184.07870467 10.78659752 C-169.0868868 10.75556449 -154.09508424 10.73859323 -139.1032403 10.72680578 C-123.72369881 10.71440097 -108.34423778 10.68691474 -92.96474707 10.64538693 C-83.47243556 10.62023232 -73.98025745 10.60688415 -64.48791213 10.60857043 C-57.98133607 10.60860015 -51.47489605 10.59399939 -44.96837299 10.56783572 C-41.21270046 10.55316748 -37.45730691 10.54500571 -33.70161057 10.55419731 C-29.6309159 10.56399138 -25.56096123 10.54300569 -21.49032593 10.51898193 C-19.70725054 10.53062256 -19.70725054 10.53062256 -17.88815343 10.54249835 C-11.66121683 10.47720848 -7.65678979 10.32623941 -3 6 C-1.11431306 2.89985071 -1.11431306 2.89985071 0 0 Z " fill="#FC6548" transform="translate(447,324)"/>
<path d="M0 0 C1.03335804 -0.00384115 2.06671609 -0.00768229 3.13138801 -0.01163983 C4.27027746 -0.01077335 5.40916691 -0.00990687 6.58256817 -0.00901413 C7.78962955 -0.01198525 8.99669093 -0.01495637 10.24032992 -0.01801753 C13.59684974 -0.02520574 16.95331838 -0.02787746 20.30984223 -0.028615 C23.92753081 -0.03046442 27.54520827 -0.03801118 31.16289043 -0.04475021 C39.07608489 -0.05833852 46.98927428 -0.06435899 54.90247846 -0.06876087 C59.8422365 -0.07152237 64.78199259 -0.07575955 69.72174931 -0.08026505 C83.39490448 -0.0924582 97.06805808 -0.10275753 110.74121857 -0.10614014 C111.61651676 -0.1063597 112.49181496 -0.10657927 113.39363734 -0.10680549 C114.27104489 -0.10702377 115.14845244 -0.10724204 116.05244809 -0.10746694 C117.83044771 -0.1079104 119.60844733 -0.10835697 121.38644695 -0.10880661 C122.26839856 -0.10902804 123.15035016 -0.10924947 124.05902757 -0.10947761 C138.352297 -0.11342628 152.64551547 -0.13088219 166.93876521 -0.15416613 C181.60871217 -0.1778711 196.27863356 -0.19034159 210.94859999 -0.19150805 C219.18716054 -0.19242528 227.42565469 -0.19818955 235.66419697 -0.21632767 C242.6790438 -0.23171711 249.69380371 -0.23685597 256.70866422 -0.22858956 C260.28813989 -0.22467897 263.86744045 -0.22563241 267.44689465 -0.23964691 C271.32674909 -0.25469873 275.20635621 -0.24653141 279.08623028 -0.23606491 C280.21842757 -0.24412132 281.35062485 -0.25217772 282.51713115 -0.26047826 C288.89534618 -0.22010926 293.73974699 0.13501675 298.66940594 4.63142776 C302.42785525 9.45833257 303.1499111 12.46050566 303.1451292 18.49048233 C303.14641084 19.46212915 303.14641084 19.46212915 303.14771837 20.4534052 C303.1493677 22.62760151 303.14386075 24.80172096 303.13840008 26.97591019 C303.13811806 28.53298313 303.13827622 30.0900562 303.13884258 31.64712906 C303.13913 35.87823304 303.13324229 40.10930878 303.12626863 44.34040618 C303.12002579 48.76067955 303.11943055 53.18095353 303.11824322 57.60123062 C303.11513265 65.97347164 303.10692295 74.34569963 303.09689373 82.71793491 C303.08572408 92.2486557 303.08021999 101.77937711 303.07519829 111.31010282 C303.06474012 130.91721841 303.04714598 150.52432227 303.02487469 170.13142776 C299.96622492 167.07392679 296.90971843 164.01433497 293.85740948 160.9505043 C293.05986248 160.15006699 292.26231548 159.34962967 291.4406004 158.52493668 C290.57968288 157.66087708 289.71876537 156.79681747 288.83175945 155.90657425 C279.48079799 146.52287729 270.12473718 137.14428121 260.76570511 127.76863384 C255.10482553 122.09743143 249.44584946 116.42435318 243.79123211 110.74690628 C238.84597723 105.78169669 233.89719826 100.82003127 228.94418472 95.86256081 C226.3268775 93.24265269 223.71134317 90.62102937 221.10004139 87.99513435 C218.187951 85.06689734 215.26802314 82.14659771 212.34738445 79.22688675 C211.05904453 77.927761 211.05904453 77.927761 209.74467754 76.60239029 C202.32584969 68.8099091 202.32584969 68.8099091 192.52487469 65.19392776 C191.81331219 65.10240433 191.10174969 65.01088089 190.36862469 64.91658401 C182.88143437 65.60290979 178.07200015 71.69564129 173.12643719 76.73689651 C172.29147717 77.57610138 171.45651714 78.41530624 170.5962553 79.27994156 C167.94031709 81.95262496 165.29502123 84.63556767 162.64987469 87.31892776 C160.84718213 89.13667244 159.04380428 90.95373777 157.23971844 92.77009964 C152.82679859 97.21603366 148.42256245 101.67042915 144.02487469 106.13142776 C140.85910181 104.73413316 138.75957256 103.09847319 136.34543133 100.63142776 C135.2889716 99.56021683 135.2889716 99.56021683 134.21116924 98.46736526 C133.08448078 97.3110762 133.08448078 97.3110762 131.93503094 96.13142776 C130.33033254 94.50630994 128.72551105 92.88131367 127.12057781 91.25642776 C124.59888971 88.69121564 122.0797102 86.12359945 119.56320477 83.55330276 C117.13108177 81.07291298 114.68983592 78.60178643 112.24753094 76.13142776 C111.49842953 75.36056839 110.74932812 74.58970901 109.97752666 73.79549026 C108.91633869 72.72427933 108.91633869 72.72427933 107.83371258 71.63142776 C107.21734432 71.00236526 106.60097607 70.37330276 105.96592999 69.72517776 C101.73469216 66.25101848 97.10642354 65.46714302 91.76386547 65.65919018 C83.31466421 67.11594222 75.97790751 76.90866968 70.20651531 82.7386055 C69.26144967 83.6858781 68.3159304 84.63269832 67.36999798 85.57910538 C65.35207154 87.59994073 63.33731258 89.62386088 61.32506084 91.65034676 C58.14512899 94.85270799 54.95797346 98.0478158 51.7698698 101.24203873 C46.73492225 106.2883164 41.70468181 111.33925581 36.67651606 116.39229017 C27.64995222 125.46340339 18.61757074 134.52871595 9.58009386 143.58895642 C6.4090386 146.76843257 3.24081243 149.950694 0.07481575 153.13520706 C-1.41518559 154.63326406 -2.90628794 156.13021456 -4.39788532 157.62668228 C-6.21998106 159.45483807 -8.04024106 161.2848259 -9.85839558 163.1169014 C-10.65452259 163.91454407 -11.4506496 164.71218674 -12.27090168 165.5340004 C-12.96622753 166.23284568 -13.66155338 166.93169096 -14.37794971 167.65171337 C-15.97512531 169.13142776 -15.97512531 169.13142776 -16.97512531 169.13142776 C-17.04521121 148.76481774 -17.09811145 128.39823219 -17.13056183 108.03152657 C-17.14602969 98.5748771 -17.16711768 89.11830257 -17.20144367 79.6617012 C-17.23134849 71.41917786 -17.25070091 63.17670878 -17.2573908 54.9341327 C-17.26130122 50.56987612 -17.27048958 46.2057748 -17.29231548 41.84156799 C-17.31269773 37.73268773 -17.31895561 33.6240265 -17.31444836 29.51510048 C-17.31527278 28.00825497 -17.32122817 26.50140204 -17.33274174 24.9946003 C-17.34771362 22.93389343 -17.34406256 20.87400873 -17.33588886 18.81328201 C-17.33865424 17.66104078 -17.34141962 16.50879955 -17.3442688 15.32164192 C-16.84927031 11.04376288 -15.38794186 7.68037507 -12.47512531 4.48689651 C-8.18261228 1.14454912 -5.3744398 0.00748696 0 0 Z " fill="#01C0B4" transform="translate(80.97512531280518,63.86857223510742)"/>
<path d="M0 0 C21.12 0 42.24 0 64 0 C64.02578125 7.1259375 64.0515625 14.251875 64.078125 21.59375 C64.10329858 26.11461907 64.1296355 30.63542159 64.16015625 35.15625 C64.20846401 42.32812737 64.25251906 49.49985065 64.27099609 56.671875 C64.28616664 62.45570502 64.32062007 68.23913127 64.36830902 74.02278137 C64.38311856 76.22667425 64.39104077 78.43062478 64.39188385 80.63456726 C64.39425645 83.72751653 64.42136107 86.81935265 64.45410156 89.91210938 C64.4490712 90.81842102 64.44404083 91.72473267 64.43885803 92.6585083 C64.53457774 98.52308112 65.39662694 103.24254946 69 108 C75.2309256 113.38884013 82.500935 112.57711775 90.38061523 112.54589844 C91.83976845 112.55464147 93.2989121 112.5651298 94.75804138 112.57722473 C98.70385875 112.60501636 102.64936223 112.60849094 106.59526324 112.60750484 C110.72463635 112.61063986 114.85386931 112.63627028 118.98316956 112.65948486 C126.79569699 112.70000344 134.60814105 112.72037581 142.42075735 112.73345876 C151.31804394 112.74934286 160.21518892 112.78776441 169.11239326 112.82805204 C187.40824268 112.91039438 205.70400206 112.96154701 224 113 C224 134.12 224 155.24 224 177 C196.20148606 177.09026168 168.4030906 177.1639596 140.60446739 177.20724869 C127.69735852 177.22788197 114.79034711 177.25601735 101.88330078 177.30175781 C90.63472766 177.34160195 79.3862251 177.36742724 68.13758337 177.37635398 C62.18040268 177.38157279 56.22342388 177.39385511 50.26630783 177.42292023 C44.66031494 177.45005084 39.0546073 177.45844965 33.44855499 177.45243073 C31.39021124 177.45353201 29.33185804 177.46149973 27.27357101 177.4768219 C24.46396111 177.49671274 21.65542934 177.49194231 18.84579468 177.48101807 C17.62301585 177.49849512 17.62301585 177.49849512 16.37553442 177.51632524 C11.13165332 177.46118439 8.09418499 176.55955234 4 173 C0.33274372 168.60752948 -0.49807855 165.61111751 -0.48101807 159.93850708 C-0.48443577 159.25142729 -0.48785347 158.56434749 -0.49137473 157.8564471 C-0.49793465 155.56678932 -0.47601086 153.27831829 -0.45410156 150.98876953 C-0.45297267 149.34258553 -0.45360777 147.69639951 -0.45587158 146.05021667 C-0.45701802 141.58979328 -0.43352017 137.12980121 -0.40557575 132.66947794 C-0.38055037 128.0050059 -0.3782192 123.34052369 -0.37347412 118.67599487 C-0.36104769 109.8468988 -0.32823056 101.01800113 -0.28807616 92.18899238 C-0.24334812 82.13586819 -0.22136881 72.08273447 -0.20129442 62.02953553 C-0.15949761 41.3528884 -0.08614938 20.67651319 0 0 Z " fill="#D0DFEB" transform="translate(64,335)"/>
<path d="M0 0 C7.05179798 4.39099328 12.89192809 10.61066646 18.71069336 16.46777344 C19.63538422 17.39056595 20.56007507 18.31335846 21.51278687 19.26411438 C24.0230825 21.76960974 26.52716069 24.281232 29.02994609 26.79422665 C31.65886246 29.43199208 34.29311585 32.06441822 36.926651 34.6975708 C41.34034371 39.11219635 45.750167 43.53065667 50.1574707 47.95166016 C55.25124713 53.06121167 60.35028175 58.16546725 65.45231718 63.26677108 C70.89604039 68.70981918 76.33595238 74.15666401 81.77474141 79.60464191 C83.33930756 81.17133808 84.90458207 82.73732353 86.47001457 84.30315399 C89.38137928 87.21570892 92.28846297 90.13250016 95.19506836 93.04980469 C96.06205856 93.91634171 96.92904877 94.78287872 97.8223114 95.67567444 C98.61139893 96.46902695 99.40048645 97.26237946 100.21348572 98.07977295 C101.24403029 99.11283129 101.24403029 99.11283129 102.29539394 100.16675949 C107.20379777 105.44556552 106.33187151 110.45886093 106.3125 117.3125 C106.32861328 118.44107422 106.34472656 119.56964844 106.36132812 120.73242188 C106.36525811 127.40946947 106.2382004 132.53108812 101.46484375 137.64453125 C95.60520725 142.12542975 95.60520725 142.12542975 90.86517906 142.12304783 C89.55815767 142.1260344 89.55815767 142.1260344 88.2247318 142.12908131 C87.26171136 142.12616847 86.29869092 142.12325563 85.30648804 142.12025452 C84.28797465 142.12110894 83.26946126 142.12196337 82.22008383 142.12284368 C78.78521414 142.12449925 75.35039259 142.11897583 71.91552734 142.11352539 C69.46206158 142.11324351 67.00859572 142.11340127 64.55513 142.1139679 C59.26166533 142.11419609 53.96821582 142.11134786 48.6747551 142.10573006 C41.02124301 142.09761286 33.36773688 142.09499961 25.71422096 142.09374207 C13.29775851 142.09155189 0.88130263 142.08489274 -11.53515625 142.07543945 C-23.59863248 142.06626444 -35.66210693 142.05918404 -47.72558594 142.05493164 C-48.84044062 142.05453756 -48.84044062 142.05453756 -49.97781761 142.05413551 C-53.70631007 142.0528305 -57.43480255 142.05156678 -61.16329503 142.05032361 C-92.10886812 142.03995207 -123.05443307 142.0222605 -154 142 C-150.23918608 137.51441799 -146.36706596 133.2194531 -142.22496033 129.08451843 C-141.67616559 128.53275257 -141.12737085 127.98098672 -140.56194597 127.41250068 C-138.74278029 125.58473999 -136.92012983 123.76049724 -135.09741211 121.9362793 C-133.78426871 120.61850159 -132.47132123 119.30052863 -131.15855408 117.9823761 C-127.60749517 114.41825952 -124.05316063 110.85742797 -120.49779582 107.29760718 C-118.27576186 105.07263476 -116.05431293 102.84707983 -113.83304024 100.62134743 C-106.87975829 93.65441473 -99.92449454 86.68946967 -92.96631902 79.72742432 C-84.93843366 71.69504897 -76.91714646 63.65616016 -68.90148348 55.61158818 C-62.69855696 49.38706807 -56.48989993 43.16830236 -50.27683645 36.95390064 C-46.56809956 33.24411505 -42.86183977 29.53193227 -39.16151237 25.81375694 C-35.685422 22.3212238 -32.20228634 18.83587631 -28.71357155 15.35595512 C-27.43427771 14.0774334 -26.15754987 12.79633825 -24.88358307 11.51250839 C-23.14525403 9.76151175 -21.39794336 8.01999795 -19.64805603 6.28056335 C-19.14532588 5.7697768 -18.64259574 5.25899025 -18.12463135 4.73272532 C-12.50374287 -0.80985781 -7.49143129 -2.11478731 0 0 Z " fill="#FDB85E" transform="translate(278,129)"/>
<path d="M0 0 C0.33 0 0.66 0 1 0 C1.07013648 14.49932613 1.12281131 28.99862588 1.15543652 43.49808693 C1.1708937 50.23071596 1.19196109 56.96323948 1.22631836 63.69580078 C1.25945688 70.19264709 1.27685189 76.68942493 1.28463173 83.18635178 C1.29017629 85.66547751 1.30100336 88.14459721 1.31719017 90.6236763 C1.33895573 94.09511549 1.34196721 97.56610125 1.34057617 101.03759766 C1.351362 102.06330872 1.36214783 103.08901978 1.3732605 104.14581299 C1.34664987 110.27990453 0.81758331 114.9109308 -3.5 119.64453125 C-8.18751825 123.29444781 -11.12419571 124.12521237 -16.97941589 124.12025452 C-18.85354408 124.12231651 -18.85354408 124.12231651 -20.76553345 124.12442017 C-22.15252709 124.12088103 -23.5395205 124.11724622 -24.92651367 124.11352539 C-26.38506569 124.11324336 -27.84361786 124.11340157 -29.3021698 124.1139679 C-33.26468809 124.11425525 -37.22717622 124.10836853 -41.18968749 124.10139394 C-45.32968859 124.09515008 -49.46969035 124.09455578 -53.60969543 124.09336853 C-61.45069737 124.09025827 -69.29168539 124.08204897 -77.13268119 124.07201904 C-87.72729401 124.05876045 -98.32191063 124.05335553 -108.91652966 124.04751682 C-125.6110302 124.03810889 -142.30550137 124.01818793 -159 124 C-159 87.04 -159 50.08 -159 12 C-143.221875 11.96132813 -143.221875 11.96132813 -127.125 11.921875 C-120.46222094 11.89670942 -113.79947081 11.87054171 -107.13671875 11.83984375 C-96.56071166 11.7913024 -85.98480078 11.74685927 -75.40869141 11.72900391 C-67.70587641 11.71598061 -60.00325713 11.68899869 -52.30055237 11.64538693 C-48.22352426 11.62278727 -44.14673741 11.60708841 -40.06964111 11.60811615 C-36.22816164 11.60886366 -32.38721516 11.59087711 -28.54587364 11.55883217 C-27.13988363 11.55034864 -25.73383372 11.54857274 -24.32782936 11.55419731 C-16.47398797 11.58141866 -10.67177966 11.34458908 -4 7 C-2.30187862 5.2078501 -2.30187862 5.2078501 -1.5 3.25 C-0.7575 1.64125 -0.7575 1.64125 0 0 Z " fill="#F92364" transform="translate(447,324)"/>
<path d="M0 0 C36.8727982 -0.1209091 36.8727982 -0.1209091 52.31640625 -0.14648438 C62.98262862 -0.16428985 73.64877992 -0.18522933 84.31494141 -0.22631836 C92.08282537 -0.25622814 99.85065172 -0.27557677 107.61859167 -0.28226548 C111.73134136 -0.28617507 115.84392623 -0.29535806 119.95662308 -0.31719017 C123.82912343 -0.3375803 127.70139134 -0.34382873 131.57394028 -0.33932304 C132.99370843 -0.34014712 134.41348451 -0.34609785 135.83320618 -0.35761642 C137.77535347 -0.37259823 139.71762599 -0.36715312 141.65982056 -0.36076355 C143.28862876 -0.36491162 143.28862876 -0.36491162 144.95034218 -0.36914349 C149.14968318 0.13916252 152.5095774 1.64056466 155.64453125 4.5 C159.40298057 9.32690481 160.12503642 12.3290779 160.12025452 18.35905457 C160.12153615 19.33070139 160.12153615 19.33070139 160.12284368 20.32197744 C160.12449301 22.49617375 160.11898606 24.6702932 160.11352539 26.84448242 C160.11324337 28.40155536 160.11340153 29.95862843 160.1139679 31.51570129 C160.11425531 35.74680527 160.1083676 39.97788101 160.10139394 44.20897841 C160.0951511 48.62925178 160.09455586 53.04952576 160.09336853 57.46980286 C160.09025797 65.84204387 160.08204826 74.21427187 160.07201904 82.58650714 C160.06084939 92.11722794 160.0553453 101.64794935 160.05032361 111.17867506 C160.03986544 130.78579065 160.02227129 150.3928945 160 170 C156.94135024 166.94249903 153.88484375 163.88290721 150.83253479 160.81907654 C150.03498779 160.01863922 149.2374408 159.2182019 148.41572571 158.39350891 C147.5548082 157.52944931 146.69389069 156.66538971 145.80688477 155.77514648 C136.4559233 146.39144952 127.0998625 137.01285344 117.74083042 127.63720608 C112.07995085 121.96600366 106.42097478 116.29292542 100.76635742 110.61547852 C95.82110254 105.65026893 90.87232357 100.6886035 85.91931003 95.73113304 C83.30200281 93.11122492 80.68646848 90.48960161 78.0751667 87.86370659 C75.16307631 84.93546958 72.24314846 82.01516995 69.32250977 79.09545898 C68.46361649 78.22937515 67.60472321 77.36329132 66.71980286 76.47096252 C59.300975 68.67848134 59.300975 68.67848134 49.5 65.0625 C48.43265625 64.92521484 48.43265625 64.92521484 47.34375 64.78515625 C39.85558565 65.47157132 35.07128359 71.55562826 30.13671875 76.60546875 C28.88783623 77.86427605 28.88783623 77.86427605 27.61372375 79.14851379 C24.96443697 81.82115327 22.32555369 84.50377613 19.6875 87.1875 C17.02985659 89.8801471 14.37009975 92.57065926 11.7077179 95.25862122 C10.0530161 96.93037359 8.4014018 98.60518839 6.75309753 100.2832489 C6.01175064 101.0343544 5.27040375 101.7854599 4.5065918 102.55932617 C3.85184372 103.22534348 3.19709564 103.89136078 2.52250671 104.57756042 C1 106 1 106 0 106 C0 71.02 0 36.04 0 0 Z " fill="#019AA1" transform="translate(224,64)"/>
<path d="M0 0 C0.804375 0.00128906 1.60875 0.00257813 2.4375 0.00390625 C10.09905821 1.30029796 14.69921037 6.74314118 19.8984375 12.04296875 C20.73339752 12.88217361 21.56835754 13.72137848 22.42861938 14.58601379 C25.0845576 17.25869719 27.72985345 19.94163991 30.375 22.625 C32.17769256 24.44274467 33.98107041 26.25981 35.78515625 28.07617188 C40.1980761 32.5221059 44.60231224 36.97650138 49 41.4375 C36.02733097 56.74680464 22.15562595 71.2939242 8.27777386 85.78065395 C2.95443156 91.34389257 -2.31384664 96.9437264 -7.47192383 102.66088867 C-44.96282777 144.1316441 -44.96282777 144.1316441 -68.24938869 145.7181139 C-96.01158788 146.41136803 -96.01158788 146.41136803 -106 138.4375 C-112.71075926 131.00125326 -112.75497393 121.27602972 -112.36456299 111.62713623 C-110.78932516 98.6937424 -100.04427502 90.19120374 -91.00468016 81.74007463 C-88.17416242 79.06684621 -85.41840386 76.31844587 -82.65298462 73.57821655 C-77.42006361 68.41529505 -72.12385173 63.32287568 -66.80099165 58.25291288 C-60.75744228 52.48930638 -54.79513787 46.64444519 -48.83559489 40.79422879 C-40.04183925 32.16799113 -31.22065733 23.56918879 -22.31879044 15.05444717 C-20.90739408 13.70325968 -19.49995301 12.3479444 -18.09265137 10.99249268 C-6.39119424 -0.15363448 -6.39119424 -0.15363448 0 0 Z " fill="#F6F89B" transform="translate(175,128.5625)"/>
<path d="M0 0 C0 33 0 66 0 100 C-33 100 -66 100 -100 100 C-93.24974294 92.1247001 -93.24974294 92.1247001 -89.75456238 88.62757874 C-88.96524323 87.83543976 -88.17592407 87.04330078 -87.36268616 86.22715759 C-86.51621017 85.38270584 -85.66973419 84.53825409 -84.79760742 83.66821289 C-83.89125549 82.76010864 -82.98490356 81.85200439 -82.05108643 80.91638184 C-79.58476791 78.44553707 -77.11533656 75.97782623 -74.64516234 73.51083684 C-72.05631592 70.92453439 -69.46992391 68.33577924 -66.88313293 65.74742126 C-62.54668672 61.40916124 -58.208148 57.07300226 -53.8684082 52.73803711 C-48.84608721 47.72117783 -43.82740655 42.70069847 -38.81056136 37.67836386 C-34.49892146 33.36219485 -30.18534715 29.04796636 -25.87013131 24.73537248 C-23.29423558 22.161038 -20.71902574 19.58602717 -18.14555931 17.00926399 C-15.28502817 14.14532344 -12.42045153 11.28546375 -9.55541992 8.42602539 C-8.27052422 7.13809334 -8.27052422 7.13809334 -6.95967102 5.82414246 C-6.18445099 5.05174225 -5.40923096 4.27934204 -4.61051941 3.48353577 C-3.93342013 2.80681352 -3.25632086 2.13009127 -2.55870342 1.43286228 C-1 0 -1 0 0 0 Z " fill="#FBDB66" transform="translate(224,171)"/>
</svg>
