<?xml version="1.0" encoding="UTF-8"?>
<svg version="1.1" xmlns="http://www.w3.org/2000/svg" width="512" height="512">
<path d="M0 0 C6.275693 0.00572432 12.55134346 0.00238613 18.82703495 -0.00357246 C23.74240936 -0.00721829 28.65777399 -0.00602167 33.57314873 -0.00344467 C35.8855229 -0.00278795 38.19789802 -0.0035587 40.51027107 -0.00592422 C55.18484011 -0.01766321 69.79214417 0.33044822 84.44555664 1.13037109 C82.96810085 5.02062708 81.27369217 7.85274143 78.69555664 11.13037109 C64.36583269 30.47030649 60.0113549 55.05866874 62.73413086 78.62841797 C66.44125271 102.69236599 79.73058304 126.04689973 99.33129883 140.66259766 C110.14026011 148.34714298 121.69558158 153.57190348 134.44555664 157.13037109 C135.30793945 157.37658203 136.17032227 157.62279297 137.05883789 157.87646484 C160.99278151 163.41142788 187.16436053 157.5074243 207.81274414 144.87646484 C210.96453662 142.78618111 213.98076774 140.57343892 216.92211914 138.19677734 C218.44555664 137.13037109 218.44555664 137.13037109 220.44555664 137.13037109 C221.38962412 152.41807358 221.59349576 167.65232144 221.57836914 182.96630859 C221.57904551 185.4217632 221.58001828 187.87721774 221.58126831 190.33267212 C221.58273241 195.45420984 221.58063439 200.57572997 221.57592773 205.69726562 C221.57026085 212.1696545 221.57359162 218.642002 221.57936764 225.11438942 C221.68228675 360.76070432 221.68228675 360.76070432 194.44555664 392.13037109 C193.68243164 393.14099609 192.91930664 394.15162109 192.13305664 395.19287109 C166.34418352 423.38070915 123.827953 425.81588945 88.16821289 427.44238281 C63.77430123 428.39418313 39.3665764 428.28316368 14.95825195 428.26074219 C8.70258168 428.25504541 2.44695395 428.2584308 -3.80871487 428.26418209 C-139.18151664 428.36993166 -139.18151664 428.36993166 -170.55444336 401.13037109 C-171.56506836 400.36724609 -172.57569336 399.60412109 -173.61694336 398.81787109 C-196.00875779 378.331743 -201.42341259 347.58256556 -204.24194336 318.81787109 C-204.36142334 317.62983887 -204.48090332 316.44180664 -204.60400391 315.21777344 C-207.3827777 284.20255313 -206.71280547 252.89108835 -206.68481445 221.78857422 C-206.67911766 215.4118232 -206.68250726 209.03511389 -206.68824768 202.6583643 C-206.74068817 134.398261 -206.74068817 134.398261 -204.30444336 109.69287109 C-204.17658447 108.37996094 -204.04872559 107.06705078 -203.91699219 105.71435547 C-200.87821984 76.04338077 -193.64103611 47.26410066 -170.74194336 26.59130859 C-125.78912806 -8.95561872 -53.57377825 -0.04936008 0 0 Z M48.11030579 161.74613953 C45.41916832 165.58351669 44.83074138 169.36489271 45.05883789 173.98974609 C45.89900398 178.64036242 48.61092135 181.37716364 52.00805664 184.44287109 C55.29990405 186.72184238 57.76891533 187.25573734 61.67602539 187.22802734 C62.4784668 187.22480469 63.2809082 187.22158203 64.10766602 187.21826172 C64.94104492 187.20988281 65.77442383 187.20150391 66.63305664 187.19287109 C67.47803711 187.18835938 68.32301758 187.18384766 69.19360352 187.17919922 C71.27761819 187.16742512 73.36159641 187.14948999 75.44555664 187.13037109 C68.29237236 195.47669241 60.64318414 203.29744656 52.92114258 211.11474609 C51.26357644 212.799121 49.61321836 214.49061816 47.9699707 216.18896484 C45.58263304 218.65515209 43.17331627 221.09781085 40.75805664 223.53662109 C40.02868896 224.29898071 39.29932129 225.06134033 38.54785156 225.84680176 C35.39323362 228.98921509 33.29630258 230.89394362 28.95703125 232.09985352 C23.57860721 230.61492535 20.71046614 227.20235317 16.94946289 223.21240234 C16.15708725 222.40300705 15.36471161 221.59361176 14.54832458 220.75968933 C12.0177504 218.17012951 9.51185769 215.55830506 7.00805664 212.94287109 C4.50459895 210.34877305 1.99611486 207.75997365 -0.52149963 205.17961121 C-2.08549264 203.57452083 -3.64096547 201.96106906 -5.18638611 200.33808899 C-13.86472188 191.38376137 -22.82474283 186.18448302 -35.49194336 185.69287109 C-51.84957185 186.1758306 -61.81227864 197.07744502 -72.64038086 207.95068359 C-73.78971721 209.09867025 -74.93935011 210.24636008 -76.08926392 211.39376831 C-78.48440041 213.78597262 -80.87592322 216.18171547 -83.26489258 218.58007812 C-86.32464626 221.65127701 -89.39336256 224.71333912 -92.4648037 227.77284431 C-94.83444239 230.13525685 -97.19929828 232.50241084 -99.5627327 234.8710289 C-100.69276864 236.00239657 -101.82428543 237.13228718 -102.95731735 238.26065445 C-104.5367403 239.83499411 -106.10960412 241.41560945 -107.6809082 242.99804688 C-109.02371353 244.34323898 -109.02371353 244.34323898 -110.39364624 245.71560669 C-114.2158185 249.98701443 -115.02006544 253.20179901 -114.86303711 258.81787109 C-114.26406869 263.30634328 -112.44534302 266.51233544 -109.01147461 269.45068359 C-104.50000195 272.40327211 -100.86406563 272.72032912 -95.55444336 272.13037109 C-90.9231985 270.19748908 -87.87678783 267.7990568 -84.39453125 264.21582031 C-83.91722061 263.72931 -83.43990997 263.24279968 -82.94813538 262.74154663 C-81.92018091 261.69225398 -80.89563867 260.63960953 -79.87422371 259.58395004 C-78.25445305 257.91167799 -76.62398708 256.25054435 -74.99009705 254.59207153 C-70.34915746 249.87804759 -65.72550114 245.14734163 -61.11523438 240.40332031 C-58.28767309 237.49526527 -55.44554839 234.60211404 -52.59405327 231.71753311 C-51.51387228 230.61877682 -50.43941071 229.5143663 -49.37095833 228.40420151 C-47.87546611 226.8508311 -46.36217132 225.31705084 -44.84375 223.78613281 C-43.98914688 222.90915741 -43.13454376 222.03218201 -42.25404358 221.12863159 C-38.91012189 218.65344043 -36.6958496 218.15739042 -32.55444336 218.13037109 C-30.45121765 219.29174805 -30.45121765 219.29174805 -28.70556641 221.11865234 C-28.03764572 221.79686035 -27.36972504 222.47506836 -26.68156433 223.17382812 C-25.9834816 223.9226123 -25.28539886 224.67139648 -24.56616211 225.44287109 C-23.82292191 226.2045459 -23.0796817 226.9662207 -22.31391907 227.75097656 C-19.93691437 230.19259605 -17.58843491 232.65944256 -15.24194336 235.13037109 C-12.90222749 237.5684309 -10.5567427 240.00042156 -8.20210266 242.42407227 C-6.73981156 243.93186845 -5.28648786 245.44843622 -3.84416199 246.9753418 C5.6622531 256.84732029 14.89477202 263.07979258 28.75805664 263.63037109 C46.28849845 263.19211005 56.06720682 251.69566757 67.66430664 239.97412109 C68.48886353 239.14577759 69.31342041 238.31743408 70.16296387 237.46398926 C72.75964024 234.8552336 75.35299965 232.24322018 77.94555664 229.63037109 C81.39062427 226.15877379 84.83895523 222.69046605 88.28930664 219.22412109 C89.07881714 218.42631226 89.86832764 217.62850342 90.6817627 216.80651855 C91.77430359 215.70902283 91.77430359 215.70902283 92.88891602 214.58935547 C93.52937866 213.94365601 94.16984131 213.29795654 94.82971191 212.63269043 C96.44555664 211.13037109 96.44555664 211.13037109 98.44555664 210.13037109 C98.41075195 211.27634766 98.37594727 212.42232422 98.34008789 213.60302734 C98.31192961 215.13296049 98.28463165 216.66290963 98.25805664 218.19287109 C98.23291992 218.94503906 98.2077832 219.69720703 98.18188477 220.47216797 C98.1048054 226.40727919 98.9083184 231.25096078 102.98071289 235.87255859 C108.42853671 239.91314404 111.70711019 240.90363544 118.44555664 240.13037109 C123.18021296 238.60127975 126.24719892 235.87852339 128.6315918 231.46878052 C130.45304473 226.23599591 130.01087877 220.57080501 129.97680664 215.09521484 C129.97950557 213.72953516 129.98339133 212.36385736 129.98840332 210.9981842 C129.99427769 208.14614434 129.98580188 205.29460797 129.96704102 202.44262695 C129.94422977 198.79863217 129.95739963 195.15581462 129.98133087 191.51186275 C129.99582696 188.69526901 129.99116607 185.87895167 129.9808197 183.06234932 C129.97687915 181.06938531 129.98896093 179.07641027 130.00134277 177.08348083 C129.98094382 168.2814395 129.98094382 168.2814395 125.44555664 161.13037109 C120.93714806 157.15867782 118.59847525 156.00790586 112.63818359 155.95336914 C111.41964188 155.94053391 110.20110016 155.92769867 108.94563293 155.91447449 C107.60837206 155.90630493 106.27110658 155.89886161 104.93383789 155.89208984 C103.92366639 155.88597655 103.92366639 155.88597655 102.89308739 155.87973976 C99.32537518 155.85887356 95.75770144 155.84457691 92.18994141 155.83520508 C88.5157661 155.82416726 84.84220089 155.78980054 81.16824055 155.75003338 C78.33451769 155.72379919 75.50093832 155.71550706 72.66710472 155.7119236 C70.65805288 155.70472146 68.64909938 155.67830663 66.64021301 155.65153503 C56.19537532 155.65509444 56.19537532 155.65509444 48.11030579 161.74613953 Z " fill="#FE7588" transform="translate(248.554443359375,41.86962890625)"/>
<path d="M0 0 C13.79155961 11.89087408 21.30498047 28.5789388 22.84375 46.53125 C23.41265206 66.0635541 16.27076906 82.44105521 3.3203125 96.72265625 C-8.84325354 108.66097107 -25.12894002 114.44147897 -41.9375 114.625 C-59.06379609 114.43800983 -75.03263 108.49896413 -87.39453125 96.40625 C-88.06871094 95.6946875 -88.74289062 94.983125 -89.4375 94.25 C-90.01886719 93.6415625 -90.60023438 93.033125 -91.19921875 92.40625 C-103.92377221 78.30347034 -107.32737952 61.132191 -106.60791016 42.66699219 C-105.49117701 26.82794046 -97.04828298 11.84103779 -85.4375 1.25 C-59.68439027 -19.64719177 -26.46013091 -19.65023675 0 0 Z " fill="#FD4A85" transform="translate(447.4375,56.75)"/>
</svg>
